<?xml version="1.0" standalone="no"?>
<!DOCTYPE svg PUBLIC "-//W3C//DTD SVG 20010904//EN"
 "http://www.w3.org/TR/2001/REC-SVG-20010904/DTD/svg10.dtd">
<svg version="1.0" xmlns="http://www.w3.org/2000/svg"
 width="1140.000000pt" height="505.000000pt" viewBox="0 0 1140.000000 505.000000"
 preserveAspectRatio="xMidYMid meet">

<g transform="translate(0.000000,505.000000) scale(0.100000,-0.100000)"
fill="#000000" stroke="none">
<path d="M6061 4787 c-5 -13 -9 -97 -10 -187 0 -135 2 -167 15 -181 16 -18 11
-59 -6 -59 -5 0 -18 -9 -29 -21 -17 -18 -23 -19 -57 -10 -22 6 -52 11 -68 11
-26 0 -28 2 -21 28 11 37 9 58 -9 93 -13 26 -13 33 1 62 9 18 20 40 25 49 11
25 10 98 -2 98 -15 0 -12 32 5 54 14 18 13 22 -12 48 -29 30 -77 37 -114 18
-17 -9 -19 -22 -19 -98 0 -53 5 -93 11 -99 7 -7 11 -40 11 -77 -1 -45 3 -70
13 -80 19 -19 19 -30 -1 -47 -9 -7 -13 -21 -10 -35 7 -25 -11 -43 -39 -38 -11
1 -22 -1 -25 -7 -12 -19 -50 31 -50 66 0 18 -6 46 -14 62 -25 51 -36 98 -36
160 0 34 -7 73 -16 91 -8 18 -13 36 -10 41 8 13 -37 61 -57 61 -9 0 -19 -4
-22 -10 -3 -5 -16 -10 -29 -10 -13 0 -31 -9 -41 -20 -18 -20 -18 -22 3 -64 12
-24 22 -48 22 -53 0 -5 11 -15 25 -21 18 -8 25 -19 25 -39 0 -17 15 -45 41
-75 39 -47 40 -50 24 -68 -21 -24 -12 -76 16 -91 28 -15 18 -33 -22 -40 -19
-4 -42 -10 -51 -14 -13 -5 -18 -3 -18 9 0 9 -7 19 -15 22 -11 4 -15 19 -13 50
1 36 -4 50 -25 72 -19 20 -27 39 -27 65 0 20 -11 56 -25 81 -16 29 -25 61 -25
89 0 37 -4 46 -25 55 -50 23 -90 15 -124 -23 -35 -40 -38 -57 -16 -75 8 -7 15
-18 15 -24 0 -7 11 -23 25 -36 14 -13 25 -29 25 -37 0 -7 18 -30 40 -50 22
-21 40 -43 40 -49 0 -6 9 -19 19 -28 10 -9 17 -25 14 -35 -2 -10 7 -31 20 -47
33 -39 27 -79 -15 -93 -33 -12 -78 -5 -78 11 0 5 -10 24 -22 41 -27 37 -44 64
-56 92 -6 11 -24 30 -42 43 -25 19 -29 26 -20 37 9 10 9 18 1 27 -6 7 -25 29
-41 48 -16 19 -28 40 -26 46 8 21 -39 54 -85 60 -53 7 -119 -16 -119 -42 0 -9
46 -62 103 -117 56 -54 101 -103 99 -108 -1 -5 5 -12 13 -15 8 -4 15 -12 15
-18 0 -7 13 -25 29 -40 24 -23 35 -27 60 -21 31 7 44 -8 16 -18 -8 -4 -18 -21
-23 -39 -10 -40 -63 -60 -91 -34 -10 9 -23 16 -29 16 -6 0 -14 9 -17 20 -5 14
-14 20 -28 18 -17 -2 -23 3 -25 21 -2 13 -15 35 -28 50 -13 14 -24 30 -24 34
0 5 -11 18 -24 28 -14 11 -27 27 -31 37 -3 9 -27 33 -54 52 -26 19 -55 47 -64
62 -11 19 -24 28 -41 28 -33 0 -96 -55 -96 -84 1 -26 88 -92 142 -107 29 -7
38 -15 38 -32 0 -26 62 -80 103 -91 16 -4 27 -13 27 -23 0 -9 15 -32 33 -51
31 -32 31 -34 13 -48 -11 -8 -29 -14 -41 -14 -12 0 -26 -5 -32 -11 -13 -13
-44 6 -103 61 -18 17 -43 30 -57 30 -16 0 -27 7 -30 20 -3 11 -12 20 -20 20
-15 0 -118 82 -141 113 -10 12 -27 17 -67 17 -61 0 -88 -18 -83 -57 3 -24 26
-37 103 -60 11 -4 33 -17 48 -30 16 -12 34 -23 42 -23 7 0 15 -9 18 -20 3 -13
14 -20 30 -20 14 0 27 -6 30 -14 3 -8 31 -26 62 -42 31 -15 59 -33 62 -40 6
-15 -55 -73 -78 -74 -8 0 -34 9 -57 20 -22 11 -48 20 -56 20 -8 0 -18 5 -21
11 -4 6 -22 8 -45 4 -32 -5 -38 -4 -43 15 -5 18 -8 19 -25 9 -26 -16 -52 -6
-45 19 6 25 -46 57 -107 65 -52 7 -64 1 -74 -31 -9 -29 26 -61 67 -62 16 0 52
-11 80 -23 65 -30 183 -69 221 -73 29 -4 66 -29 66 -46 0 -5 -21 -18 -46 -28
-49 -22 -178 -28 -189 -10 -3 6 -22 10 -41 10 -19 0 -34 5 -34 10 0 6 -9 10
-20 10 -11 0 -34 9 -52 20 -18 11 -43 20 -55 20 -12 0 -25 5 -28 10 -3 6 -22
10 -40 10 -29 0 -36 -4 -41 -25 -7 -27 9 -55 31 -55 7 0 18 -7 25 -15 7 -8 30
-18 52 -21 21 -4 41 -11 44 -15 3 -5 16 -9 29 -9 13 0 27 -4 30 -10 3 -5 28
-10 56 -10 53 0 67 -19 30 -40 -11 -5 -23 -19 -26 -31 -5 -15 -10 -18 -18 -10
-7 7 -16 7 -30 -1 -23 -12 -96 6 -168 42 -24 12 -90 5 -100 -11 -12 -20 -11
-35 5 -48 7 -6 13 -28 12 -49 -1 -30 -5 -38 -23 -40 -23 -3 -39 -34 -28 -52 6
-10 125 -14 125 -4 0 3 -5 14 -10 25 -24 44 30 77 104 63 l36 -6 -19 -32 c-21
-34 -19 -77 5 -97 8 -6 14 -18 14 -25 0 -8 4 -14 9 -14 5 0 11 23 13 50 6 57
23 80 85 117 37 22 46 23 83 13 34 -9 46 -8 65 4 26 17 82 21 103 7 10 -6 5
-16 -20 -42 -54 -57 -106 -134 -96 -144 12 -13 125 79 140 113 6 14 66 52 83
52 12 0 16 -8 13 -32 -2 -26 -10 -36 -36 -48 -18 -9 -51 -38 -73 -65 -22 -27
-54 -58 -71 -68 -29 -18 -30 -18 -23 0 4 10 10 26 13 37 5 18 4 18 -24 0 -35
-23 -49 -38 -74 -86 -21 -40 -34 -45 -150 -57 -53 -6 -55 -7 -65 -45 -16 -55
-22 -36 -23 64 0 72 2 88 20 107 l20 22 -26 24 c-27 25 -80 37 -167 37 -53 0
-61 -10 -28 -34 20 -13 14 -15 -72 -18 -88 -4 -121 -11 -194 -44 -69 -31 -84
-29 -117 10 -25 30 -36 36 -64 34 -19 -1 -34 -7 -34 -13 0 -5 -24 -11 -53 -12
-28 -1 -46 0 -39 3 14 6 17 24 4 24 -5 0 -14 -10 -19 -22 -11 -23 -11 -23 -18
4 -8 30 -25 28 -25 -2 0 -13 -5 -17 -15 -14 -8 4 -15 2 -15 -4 0 -5 -7 -13
-16 -16 -11 -4 -14 -1 -10 12 9 27 -29 26 -43 -1 -12 -23 -54 -47 -81 -47 -10
0 -31 7 -49 16 -17 9 -38 13 -46 11 -7 -3 -19 0 -25 8 -11 13 -94 32 -115 26
-10 -3 -97 -11 -142 -14 -13 0 -23 -6 -23 -11 0 -6 -4 -4 -9 3 -8 12 -12 10
-22 -11 -6 -15 -19 -26 -28 -26 -9 0 -24 -3 -34 -7 -14 -6 -16 -3 -11 11 5 18
5 18 -6 2 -6 -10 -20 -18 -30 -18 -14 0 -18 5 -14 18 5 16 5 16 -9 0 -19 -24
-36 -23 -30 2 8 29 -6 25 -17 -5 -10 -27 -54 -36 -63 -12 -2 6 -8 -5 -12 -25
-4 -21 -11 -38 -16 -38 -5 0 -4 12 1 26 15 37 11 53 -5 24 -7 -14 -16 -24 -19
-22 -15 6 -24 0 -35 -20 -11 -23 -11 -23 -6 2 4 22 3 22 -9 -4 -9 -20 -15 -25
-19 -15 -4 9 -6 10 -6 2 -1 -7 -5 -13 -10 -13 -5 0 -7 9 -4 20 4 16 2 19 -11
14 -9 -3 -16 -11 -16 -18 0 -6 -5 -4 -10 4 -8 12 -10 11 -10 -6 0 -12 -8 -45
-17 -74 -15 -47 -18 -50 -30 -34 -15 20 -17 12 -5 -14 5 -10 4 -35 -4 -62 -6
-25 -12 -36 -13 -24 -1 11 -8 29 -16 40 -15 18 -16 17 -10 -13 5 -24 3 -33 -6
-33 -8 0 -3 -7 9 -16 25 -17 30 -36 7 -28 -8 4 -15 1 -15 -4 0 -6 9 -14 20
-17 11 -3 20 -14 20 -23 0 -12 -3 -13 -12 -4 -14 14 -28 16 -28 3 0 -5 9 -13
20 -16 31 -10 24 -28 -7 -21 l-28 6 30 -26 c20 -17 26 -28 17 -31 -10 -4 -10
-8 -1 -19 9 -11 9 -17 0 -28 -9 -11 -9 -15 1 -19 10 -4 10 -7 1 -14 -9 -7 -5
-18 16 -44 16 -19 30 -43 32 -54 3 -12 14 -21 27 -23 23 -3 31 -35 12 -47 -5
-3 -10 -14 -10 -23 0 -9 -9 -28 -19 -41 -18 -23 -21 -24 -80 -14 l-61 10 -53
-38 c-28 -21 -59 -38 -67 -39 -26 0 -117 47 -123 64 -5 12 -1 15 15 13 15 -1
21 4 23 20 3 34 34 73 70 88 34 15 44 36 45 95 1 32 2 34 15 16 21 -27 34 -12
25 31 -8 44 -7 103 3 120 4 6 0 16 -7 22 -12 10 -12 16 -1 38 11 21 12 30 2
42 -9 11 -9 15 2 19 10 3 8 9 -9 22 -15 11 -24 31 -27 58 -4 38 -3 40 18 35
15 -4 20 -3 15 5 -4 7 -14 12 -22 12 -9 0 -14 11 -14 35 l0 35 -197 -6 c-205
-6 -219 -9 -368 -67 -60 -24 -99 -21 -121 8 -23 31 -76 50 -101 37 -15 -9 -16
-26 -14 -141 2 -133 -15 -231 -42 -248 -34 -21 -59 -104 -37 -118 6 -3 10 -15
10 -25 0 -23 19 -29 92 -29 78 1 98 -7 98 -37 0 -17 6 -24 19 -24 18 0 19 -7
16 -117 -3 -83 0 -128 11 -158 12 -36 12 -48 1 -76 -14 -35 -9 -227 8 -311 6
-30 4 -38 -7 -38 -8 0 -29 -18 -46 -40 -22 -26 -43 -41 -65 -45 -25 -5 -38
-16 -53 -43 -10 -20 -24 -41 -31 -45 -10 -6 -13 -59 -13 -212 0 -201 0 -204
22 -216 36 -19 178 -13 268 12 l80 22 102 -26 c135 -35 218 -41 269 -21 31 13
39 22 40 43 3 66 -1 326 -7 414 l-6 97 -59 0 c-40 0 -59 4 -59 13 0 19 -62 59
-74 47 -16 -16 -26 -12 -26 10 0 11 8 24 18 27 23 9 50 41 67 80 8 17 18 34
23 37 5 3 37 -4 72 -15 45 -14 77 -18 107 -13 54 8 101 -10 109 -42 3 -12 12
-25 20 -28 8 -3 14 -13 14 -23 0 -15 2 -16 10 -3 8 13 10 13 10 -1 0 -22 -19
-37 -55 -41 l-30 -3 -1 -130 c-1 -71 2 -150 6 -174 6 -31 4 -57 -6 -85 -16
-45 -14 -140 4 -158 20 -20 190 -21 395 -3 266 23 264 22 308 93 43 67 72 78
88 31 5 -16 17 -29 25 -29 9 0 19 -16 26 -39 l10 -40 138 -3 c129 -3 223 8
277 31 87 38 122 42 170 17 75 -39 199 -23 311 39 45 25 75 35 106 35 78 0
118 -12 149 -42 33 -34 75 -48 141 -48 53 0 83 11 148 55 84 57 90 58 330 65
124 4 232 10 240 13 26 12 38 41 54 127 9 45 16 84 16 86 0 2 7 4 15 4 19 0
19 17 -1 55 -11 21 -14 45 -10 78 4 40 2 47 -12 47 -14 0 -17 9 -17 39 0 48
-7 56 -34 42 -27 -15 -33 -2 -30 62 3 45 0 52 -16 55 -11 2 -33 8 -50 15 -16
6 -42 10 -57 8 -18 -1 -30 4 -37 18 -14 25 -14 41 -1 21 8 -12 10 -9 10 12 0
15 6 31 13 35 6 4 17 17 23 27 20 37 39 42 94 22 81 -29 154 -18 231 34 90 61
123 78 208 106 72 24 199 92 219 117 5 7 24 40 41 74 18 34 39 67 47 74 9 7
14 32 14 73 0 33 3 92 7 129 5 61 9 69 34 83 37 19 42 18 29 -5 -5 -11 -10
-21 -10 -23 0 -2 39 0 87 5 78 8 88 7 100 -9 7 -10 13 -26 13 -36 0 -11 7 -18
20 -18 17 0 19 -5 14 -32 -3 -18 -7 -39 -10 -46 -2 -7 1 -23 6 -36 4 -13 5
-39 1 -58 -6 -25 -3 -48 10 -83 16 -42 16 -50 3 -70 -11 -17 -13 -48 -9 -153
3 -72 9 -142 15 -156 8 -22 4 -31 -42 -76 -45 -45 -54 -50 -83 -44 -37 7 -75
-9 -75 -32 0 -8 6 -17 14 -20 16 -6 11 -33 -10 -50 -9 -7 -14 -36 -15 -87 -1
-70 -3 -76 -23 -79 -22 -3 -37 -47 -17 -49 6 -1 17 -2 24 -3 8 -1 13 -30 15
-101 2 -75 6 -103 18 -111 25 -20 151 -6 254 28 l94 31 88 -17 c126 -25 238
-23 295 5 37 18 44 25 39 43 -4 11 -9 40 -12 64 -7 42 -7 42 25 42 38 0 39 12
4 40 l-27 21 27 25 c21 20 26 31 21 52 -9 37 -11 38 -33 18 -19 -17 -20 -16
-23 74 -2 50 -1 93 1 95 2 2 10 -2 18 -10 19 -20 37 -19 29 1 -3 9 -6 24 -6
34 0 17 -122 100 -148 100 -22 0 -39 40 -36 82 5 58 23 74 65 59 17 -6 74 -11
125 -11 l92 0 31 -42 c45 -61 39 -88 -20 -88 -14 0 -19 -7 -19 -30 0 -20 -8
-35 -25 -46 -14 -9 -25 -23 -25 -31 0 -11 7 -14 25 -11 23 5 25 2 25 -33 0
-33 -3 -39 -21 -39 -19 0 -20 -4 -14 -42 9 -50 13 -57 25 -39 12 20 24 -68 15
-111 -4 -18 -18 -53 -31 -78 l-24 -45 25 -23 c16 -13 40 -22 63 -23 117 -4
249 4 417 26 l190 25 30 33 c16 19 38 47 47 63 11 20 28 31 55 37 21 5 55 13
76 18 l37 10 0 79 c0 58 -4 81 -14 87 -17 9 -23 83 -11 127 6 22 5 27 -5 21
-13 -8 -12 6 6 92 5 27 3 33 -11 33 -12 0 -15 5 -9 23 3 12 8 24 11 27 8 8 43
-44 55 -83 13 -43 6 -56 -19 -36 -15 13 -16 12 -9 -6 26 -62 35 -93 36 -117 0
-39 18 -80 31 -72 6 3 44 -29 88 -74 42 -45 88 -86 102 -92 25 -11 60 -30 169
-92 36 -20 84 -41 108 -46 65 -15 223 8 299 42 54 25 70 28 115 22 29 -4 66
-9 83 -11 35 -4 55 9 55 37 0 10 9 29 21 41 11 12 23 35 26 51 6 28 38 64 123
141 64 57 124 155 160 263 17 52 57 158 88 235 l57 142 2 155 c2 148 3 155 22
158 15 2 21 11 21 27 0 13 5 27 10 30 15 9 41 -14 38 -34 -2 -10 5 -17 21 -19
23 -4 23 -5 16 -80 -12 -132 -14 -303 -4 -412 13 -135 17 -159 30 -139 14 22
10 1 -5 -29 -29 -55 -66 -78 -148 -92 -62 -10 -79 -17 -84 -32 -12 -38 -7
-276 6 -307 16 -39 6 -98 -18 -104 -11 -3 -6 -7 16 -12 29 -7 46 -25 22 -25
-5 0 -10 -7 -10 -15 0 -35 141 -31 206 6 136 78 123 74 224 74 52 0 156 -4
230 -8 125 -8 137 -7 159 11 14 11 25 32 27 53 2 19 10 70 18 114 8 44 11 86
7 93 -4 8 -5 34 -1 59 7 41 5 45 -17 54 -13 5 -32 9 -42 9 -15 0 -19 11 -25
61 -3 34 -6 76 -6 93 0 27 -6 34 -48 53 -26 12 -57 20 -68 17 -26 -7 -52 22
-36 38 7 7 12 20 12 30 0 9 6 21 13 25 6 4 17 17 23 28 15 26 47 30 79 9 15
-10 54 -19 94 -22 67 -4 68 -4 183 57 63 33 124 61 134 61 27 0 99 26 162 57
60 30 86 57 135 145 31 56 36 77 47 185 23 223 4 342 -70 434 -15 20 -33 53
-39 75 -15 57 -35 80 -94 110 -46 24 -62 27 -142 25 -93 -1 -160 -11 -232 -32
-55 -17 -83 2 -123 80 -16 33 -35 63 -41 66 -6 4 -34 -9 -62 -28 -82 -55 -94
-59 -191 -63 -146 -6 -199 -14 -218 -31 -11 -10 -18 -12 -18 -5 0 7 -5 12 -11
12 -6 0 -9 -6 -6 -14 4 -10 -7 -19 -32 -30 -21 -8 -41 -21 -44 -29 -3 -9 -23
-16 -46 -19 -38 -3 -40 -2 -35 19 6 21 3 23 -35 20 -22 -1 -41 -5 -41 -9 0 -3
-8 -4 -18 -1 -10 2 -26 -5 -36 -16 -16 -18 -17 -24 -6 -51 7 -16 9 -37 6 -46
-5 -14 -9 -13 -27 7 -21 25 -15 5 7 -21 10 -12 10 -27 0 -75 l-12 -60 -27 49
c-31 56 -33 63 -12 46 10 -9 19 -10 26 -3 6 6 -1 23 -21 49 -16 21 -30 42 -30
47 0 4 -19 26 -43 50 -24 23 -51 53 -60 67 -10 14 -15 18 -11 10 4 -8 16 -27
26 -42 11 -16 15 -28 9 -28 -6 0 -11 3 -11 8 0 4 -13 21 -28 37 -15 17 -24 26
-19 21 4 -6 7 -14 7 -20 0 -19 -48 36 -65 75 -10 21 -20 37 -22 35 -3 -2 0
-14 7 -25 6 -12 7 -21 2 -21 -5 0 -16 15 -26 33 -9 17 -14 24 -12 15 9 -30
-11 -20 -24 12 -7 17 -15 29 -17 26 -3 -2 1 -14 7 -26 11 -21 9 -21 -39 6 -36
21 -52 36 -57 56 -3 16 -10 28 -15 28 -6 0 -5 -8 1 -20 8 -14 8 -20 0 -20 -6
0 -15 10 -20 23 -5 12 -9 18 -10 12 0 -5 -9 1 -20 15 -12 15 -18 18 -14 8 3
-10 1 -18 -5 -18 -6 0 -11 8 -12 18 0 14 -2 14 -9 -3 -7 -16 -9 -16 -9 -4 -1
20 -53 32 -99 23 -24 -5 -32 -12 -33 -28 0 -21 0 -21 -11 2 -16 33 -42 29 -33
-5 6 -27 6 -27 -9 -8 -8 11 -16 16 -16 11 0 -5 -7 -3 -15 4 -11 9 -19 8 -37
-5 l-23 -17 22 5 c13 3 26 1 29 -5 9 -14 -27 -37 -56 -37 -24 1 -24 1 5 14
l30 14 -30 1 c-40 0 -97 -17 -106 -32 -4 -7 -2 -19 4 -27 10 -12 9 -13 -1 -7
-7 4 -24 9 -38 11 -24 2 -24 2 -7 -17 17 -18 16 -19 -10 -14 -15 2 -32 8 -38
12 -8 4 -9 3 -5 -4 5 -8 -2 -12 -18 -12 -32 0 -34 -18 -5 -29 21 -7 21 -8 -7
-28 -41 -28 -94 -53 -94 -43 0 4 -9 10 -19 13 -17 4 -18 2 -8 -14 9 -15 7 -23
-13 -44 -13 -14 -31 -25 -41 -25 -20 0 -68 -51 -129 -139 l-45 -64 -5 123 c-6
141 6 128 -120 137 -50 3 -125 -2 -223 -16 -169 -24 -180 -25 -172 -11 3 6 23
10 44 10 21 0 56 7 76 16 21 8 46 14 55 11 18 -5 50 9 50 22 0 4 -26 4 -57 0
-164 -21 -195 -28 -242 -58 -26 -17 -58 -31 -70 -31 -19 0 -22 -5 -19 -27 4
-34 -24 -43 -53 -17 -18 17 -21 17 -37 1 -14 -14 -14 -21 -4 -37 16 -26 15
-39 -4 -75 -12 -21 -18 -65 -22 -142 -2 -62 -8 -113 -12 -113 -4 0 -14 17 -23
38 l-15 37 -1 -37 c-1 -54 38 -169 65 -193 13 -12 24 -31 24 -43 0 -15 6 -22
19 -22 11 0 23 -5 27 -11 8 -14 -46 -119 -63 -119 -9 0 -8 7 3 28 7 15 14 40
14 57 l0 30 -20 -38 c-11 -20 -20 -44 -20 -52 0 -16 -6 -18 -61 -15 -22 1 -41
-5 -48 -14 -18 -22 -29 -20 -34 7 -3 19 -5 18 -12 -10 -4 -17 -17 -41 -29 -52
l-22 -21 -60 24 c-55 23 -86 56 -48 52 9 0 18 7 19 17 6 35 42 82 73 96 18 8
32 20 32 27 0 6 9 14 21 17 23 6 23 25 -1 257 -9 84 -9 115 -1 118 6 2 11 20
11 39 0 29 2 33 14 24 12 -10 14 -7 12 21 -4 48 -4 48 -26 48 -11 0 -23 7 -26
15 -4 8 -14 15 -24 15 -9 0 -25 9 -35 20 -20 22 -60 27 -71 9 -4 -7 1 -16 12
-22 17 -10 17 -11 -1 -18 -38 -15 -76 -10 -94 13 -10 12 -30 22 -44 22 -31 2
-34 -6 -11 -28 18 -19 17 -19 -76 -34 -52 -7 -68 -7 -81 4 -19 17 -55 18 -65
2 -4 -6 1 -17 11 -24 17 -12 13 -16 -37 -39 l-56 -26 -38 23 c-22 13 -47 31
-56 40 -25 25 -41 23 -33 -3 7 -20 4 -21 -27 -15 -45 8 -83 -16 -66 -43 9 -15
7 -22 -10 -39 -25 -25 -35 -58 -30 -98 l4 -29 14 28 c7 15 17 27 22 27 12 0
10 -138 -2 -145 -5 -3 -10 3 -10 13 0 11 -7 25 -15 32 -13 11 -15 7 -15 -22 0
-19 5 -49 11 -66 10 -29 8 -35 -20 -69 -20 -24 -31 -49 -31 -69 0 -27 -14 -44
-36 -44 -2 0 -4 23 -4 50 0 61 -33 163 -66 206 l-23 32 20 14 c21 13 21 14
-12 81 -18 40 -46 79 -64 93 -44 33 -50 30 -24 -13 21 -34 22 -36 3 -29 -10 5
-28 11 -39 14 -11 3 -29 11 -40 19 -11 7 -38 13 -60 13 -35 0 -184 -26 -267
-46 -23 -5 -35 2 -85 53 -32 32 -66 71 -76 86 -20 30 -47 37 -41 10 3 -13 -14
-31 -56 -61 -55 -40 -61 -42 -76 -28 -17 17 -27 19 -62 10 l-23 -7 26 -17 c37
-24 22 -30 -88 -36 -88 -5 -91 -4 -69 12 26 19 29 36 6 27 -12 -4 -15 -2 -12
8 3 9 31 17 84 23 43 5 80 10 81 11 2 1 -18 23 -43 49 -38 40 -45 52 -39 75
12 50 123 141 172 141 13 0 26 8 30 18 12 34 58 92 74 92 8 0 19 4 25 9 5 5
34 16 65 26 37 11 80 36 126 74 53 43 87 62 144 80 41 13 88 28 104 34 17 6
70 12 118 15 79 3 93 1 137 -22 43 -23 50 -24 61 -10 22 26 53 33 103 22 34
-7 51 -7 59 1 6 6 41 11 77 11 38 0 74 5 83 13 15 10 4 12 -65 10 -99 -3 -136
-3 -185 -1 -21 2 -54 -1 -73 -6 l-35 -9 32 27 c17 14 40 26 52 26 12 0 21 5
21 10 0 17 -77 11 -136 -11 -46 -17 -71 -21 -133 -16 -47 3 -91 0 -116 -8 -22
-7 -71 -20 -110 -30 -68 -18 -122 -49 -222 -130 -28 -22 -59 -36 -88 -40 -48
-8 -130 -63 -140 -95 -3 -9 -14 -25 -25 -35 -20 -18 -21 -18 -48 2 -29 22 -92
35 -92 20 0 -5 11 -18 25 -29 31 -24 31 -35 3 -49 -13 -5 -41 -35 -62 -65 -22
-30 -45 -54 -51 -54 -7 0 -24 9 -38 20 -36 28 -88 26 -117 -5 -18 -19 -34 -25
-67 -25 -30 0 -43 4 -43 14 0 29 134 112 199 122 28 5 45 13 48 24 2 9 17 24
33 33 15 9 30 28 34 41 8 33 71 86 102 86 14 0 35 11 47 24 18 21 136 76 161
76 4 0 31 10 59 23 77 35 119 47 173 51 27 2 78 18 114 35 36 17 81 31 102 31
20 0 40 5 43 10 3 6 38 10 76 10 39 0 93 7 121 17 47 15 57 15 142 0 50 -9
111 -19 136 -23 44 -6 230 -58 260 -73 8 -4 37 -9 65 -10 92 -4 220 -45 285
-91 14 -10 43 -22 65 -26 44 -8 125 -81 125 -113 0 -11 12 -29 28 -41 15 -12
41 -41 57 -64 51 -73 112 -136 131 -136 18 0 38 11 95 52 26 18 42 22 145 34
38 4 72 9 77 10 4 1 19 2 35 3 39 2 52 13 45 39 -3 14 -13 22 -27 22 -12 0
-27 5 -32 10 -12 12 -62 -10 -89 -40 -13 -15 -31 -20 -66 -20 -48 0 -111 -28
-136 -60 -6 -8 -13 -13 -16 -10 -2 3 -25 29 -51 59 l-47 53 22 24 c12 13 29
24 37 24 8 0 27 11 44 25 16 14 38 25 49 25 10 0 19 5 19 10 0 6 12 10 28 10
15 0 42 9 60 20 18 11 38 20 45 20 24 0 57 45 57 77 0 79 -119 81 -203 4 -23
-21 -60 -50 -82 -63 -22 -14 -60 -44 -84 -67 -24 -22 -48 -38 -53 -35 -5 3
-20 24 -34 46 -30 47 -38 34 85 137 47 39 94 71 105 71 34 1 65 23 84 60 15
30 16 39 4 63 -21 44 -55 52 -113 25 -36 -17 -48 -29 -49 -45 0 -16 -16 -33
-52 -58 -29 -19 -58 -35 -65 -35 -7 0 -15 -11 -19 -24 -3 -13 -18 -36 -33 -50
l-28 -27 -67 22 c-67 22 -76 33 -41 53 10 6 28 19 39 29 11 9 23 17 28 17 4 0
8 8 8 18 0 11 20 33 45 51 25 18 45 39 45 47 0 8 15 21 33 29 17 8 52 31 75
52 l44 38 -21 27 c-13 16 -35 29 -59 33 -42 7 -92 -8 -92 -27 0 -7 -25 -33
-55 -58 -29 -25 -54 -53 -54 -63 -1 -11 -13 -31 -28 -46 -16 -15 -35 -37 -43
-48 -8 -11 -27 -35 -43 -52 l-27 -33 -53 18 c-72 23 -71 21 -37 62 16 20 30
44 30 52 0 9 14 26 30 38 17 13 30 28 30 36 0 7 11 23 25 36 14 13 25 33 25
44 0 28 8 38 53 65 35 22 38 26 35 64 -3 36 -8 44 -40 61 -33 17 -41 18 -63 6
-13 -7 -27 -22 -31 -32 -3 -10 -16 -30 -29 -44 -13 -14 -22 -31 -19 -38 4 -11
-14 -55 -53 -131 -9 -16 -27 -41 -41 -54 -21 -19 -23 -27 -14 -41 15 -24 -32
-90 -65 -90 -24 0 -31 14 -13 25 6 3 10 14 10 24 0 10 7 24 15 31 12 10 13 16
4 26 -14 16 -51 18 -65 4 -8 -8 -14 -7 -23 3 -9 11 -8 17 4 27 8 7 15 22 15
34 0 11 14 41 30 65 17 24 30 50 30 58 0 7 5 13 10 13 6 0 10 7 10 15 0 16 39
77 53 83 4 2 7 19 7 38 l0 34 -40 -6 c-36 -6 -40 -5 -40 15 0 31 -40 27 -73
-7 -25 -26 -27 -35 -27 -111 0 -69 -4 -90 -22 -120 -12 -20 -26 -37 -30 -39
-4 -2 -8 -24 -8 -48 0 -30 -5 -46 -15 -50 -9 -4 -15 -19 -15 -35 0 -34 0 -34
-65 -13 -27 9 -56 19 -64 21 -23 6 -6 135 24 183 16 25 25 54 25 79 0 22 6 44
13 48 18 12 35 52 42 102 7 55 -10 70 -82 71 -28 0 -55 5 -58 10 -10 17 -25
11 -34 -13z m335 -498 c3 -6 -3 -20 -14 -32 -18 -18 -25 -19 -48 -8 -26 11
-26 12 -9 31 20 22 60 27 71 9z m834 -605 c0 -18 -24 -44 -40 -44 -22 0 -26
20 -8 38 12 12 48 17 48 6z m1862 -12 c9 -9 8 -12 -4 -12 -8 0 -21 6 -27 14
-10 11 -9 14 4 12 8 -1 21 -8 27 -14z m39 -79 c13 -16 12 -17 -3 -4 -10 7 -18
15 -18 17 0 8 8 3 21 -13z m44 -23 c10 -11 16 -20 13 -20 -3 0 -13 9 -23 20
-10 11 -16 20 -13 20 3 0 13 -9 23 -20z m-2987 -80 c15 0 15 -2 2 -10 -22 -14
-37 -12 -44 6 -5 12 -2 15 10 10 8 -3 23 -6 32 -6z m-929 -66 c14 -12 -19 -1
-35 12 -18 14 -18 14 6 3 14 -6 27 -13 29 -15z m3989 8 c18 -14 22 -24 17 -45
-10 -37 -18 -34 -35 11 -8 20 -16 40 -18 45 -6 13 12 7 36 -11z m-5518 -12 c0
-11 7 -20 16 -20 8 0 12 -5 9 -10 -7 -12 -65 31 -58 43 9 15 33 6 33 -13z
m-783 -26 c-3 -3 -12 -4 -19 -1 -8 3 -5 6 6 6 11 1 17 -2 13 -5z m5684 -44
c26 -23 51 -51 55 -63 3 -12 13 -33 22 -47 44 -67 75 -166 79 -250 4 -83 11
-111 40 -177 14 -31 13 -34 -29 -105 -23 -40 -48 -85 -54 -99 -7 -15 -17 -30
-23 -33 -6 -4 -11 -30 -11 -57 0 -47 -2 -51 -34 -64 -19 -8 -53 -17 -75 -21
-32 -5 -43 -12 -47 -29 -3 -13 -19 -35 -35 -51 -27 -26 -35 -28 -97 -26 -37 2
-71 7 -76 12 -6 6 -20 10 -32 10 -75 0 -104 118 -104 426 l0 212 32 78 c17 44
35 81 40 82 4 2 8 12 8 23 0 22 101 129 173 183 67 50 104 49 168 -4z m1339
23 c-1 -18 -18 -35 -24 -24 -4 6 -4 16 -1 21 7 12 25 13 25 3z m-4181 -51 c1
-7 -3 -10 -9 -7 -5 3 -10 18 -9 33 0 24 1 25 9 7 5 -11 9 -26 9 -33z m4411 2
c0 -8 -4 -12 -10 -9 -5 3 -10 10 -10 16 0 5 5 9 10 9 6 0 10 -7 10 -16z m-90
-16 c29 -15 46 -31 48 -45 2 -12 14 -28 27 -37 13 -8 26 -30 30 -48 6 -26 3
-35 -15 -50 -34 -27 -58 -22 -81 17 l-20 34 -37 -17 c-20 -9 -44 -22 -52 -28
-8 -7 -31 -14 -50 -16 -30 -3 -35 0 -38 21 -2 13 1 28 7 34 6 6 11 26 11 44 0
25 10 44 38 73 43 47 68 50 132 18z m650 -74 c0 -8 -4 -12 -10 -9 -5 3 -10 10
-10 16 0 5 5 9 10 9 6 0 10 -7 10 -16z m-1427 -64 c-4 -17 -23 -29 -23 -16 0
2 -3 11 -6 20 -4 11 0 16 14 16 15 0 19 -5 15 -20z m135 9 c-2 -6 -8 -10 -13
-10 -5 0 -11 4 -13 10 -2 6 4 11 13 11 9 0 15 -5 13 -11z m-2390 -38 c3 -8 -1
-12 -9 -9 -7 2 -15 10 -17 17 -3 8 1 12 9 9 7 -2 15 -10 17 -17z m629 -56 c-6
-14 -8 -14 -25 2 -15 16 -16 19 -2 24 20 9 34 -5 27 -26z m-179 -5 c-15 -23
-28 -26 -28 -7 0 17 10 27 27 27 11 0 11 -4 1 -20z m-3185 -25 c16 -11 17 -19
9 -47 -6 -18 -14 -69 -17 -113 l-7 -79 -16 29 c-24 45 -19 226 6 225 4 0 15
-7 25 -15z m2382 5 c-3 -5 -10 -10 -16 -10 -5 0 -9 5 -9 10 0 6 7 10 16 10 8
0 12 -4 9 -10z m904 -9 c8 -5 11 -16 6 -30 -5 -17 -2 -21 15 -21 19 0 21 -4
15 -22 -4 -13 -9 -111 -12 -218 -5 -206 8 -323 42 -360 8 -9 15 -18 15 -21 0
-2 -50 -5 -110 -7 -92 -2 -111 0 -116 13 -4 8 -2 21 4 28 41 51 52 230 29 444
-7 61 -11 116 -9 122 2 6 12 11 23 11 11 0 19 7 19 17 0 38 47 64 79 44z
m-2559 -20 c0 -5 -7 -14 -15 -21 -12 -10 -15 -10 -15 2 0 8 3 18 7 21 9 10 23
9 23 -2z m1125 -31 c-5 -8 -11 -8 -21 1 -12 10 -12 14 -2 20 16 10 33 -5 23
-21z m-895 -6 c0 -8 -4 -12 -10 -9 -5 3 -10 10 -10 16 0 5 5 9 10 9 6 0 10 -7
10 -16z m-77 -21 c16 -8 34 -28 40 -43 6 -16 18 -31 28 -33 10 -3 19 -19 23
-42 9 -44 -4 -62 -48 -67 -23 -2 -32 3 -45 26 -9 16 -21 28 -26 26 -9 -2 -60
-29 -109 -57 -11 -7 -31 -13 -43 -13 -19 0 -23 6 -23 30 0 17 5 30 10 30 6 0
10 19 10 43 0 31 5 45 20 55 11 7 20 19 20 27 0 7 10 21 23 30 25 18 72 13
120 -12z m1441 12 c-4 -8 -11 -15 -16 -15 -6 0 -5 6 2 15 7 8 14 15 16 15 2 0
1 -7 -2 -15z m-794 -40 c0 -8 -4 -15 -10 -15 -5 0 -10 7 -10 15 0 8 5 15 10
15 6 0 10 -7 10 -15z m-850 -29 c0 -8 -4 -18 -10 -21 -5 -3 -10 3 -10 14 0 12
5 21 10 21 6 0 10 -6 10 -14z m-1776 -55 c3 -4 -3 -16 -14 -26 -19 -17 -20
-17 -20 2 0 29 22 45 34 24z m116 -6 c0 -8 -7 -15 -15 -15 -16 0 -20 12 -8 23
11 12 23 8 23 -8z m120 -30 c0 -33 -13 -38 -34 -14 -13 16 -14 24 -6 34 16 20
40 7 40 -20z m480 15 c0 -5 -5 -10 -11 -10 -5 0 -7 5 -4 10 3 6 8 10 11 10 2
0 4 -4 4 -10z m209 0 c97 0 99 -1 144 -35 41 -32 52 -35 109 -35 66 0 88 -10
88 -42 0 -12 7 -18 21 -18 21 0 21 -3 15 -102 -3 -57 -11 -160 -18 -231 -9
-97 -8 -133 0 -150 18 -32 32 -149 18 -144 -13 4 -35 -22 -36 -41 0 -7 9 -16
20 -20 20 -7 20 -9 -7 -34 -32 -30 -88 -42 -88 -18 0 8 6 14 13 13 14 -3 16
23 2 32 -5 3 -10 17 -10 30 0 47 -68 83 -98 53 -9 -9 -8 -16 3 -29 14 -15 13
-18 -21 -34 -22 -10 -46 -14 -63 -10 -90 22 -133 27 -144 16 -15 -15 -35 -14
-34 2 1 38 -4 47 -28 47 -14 0 -29 -8 -35 -21 -13 -24 -53 -23 -58 2 -2 9 11
38 29 64 26 39 30 50 21 68 -13 27 -20 86 -31 277 -5 80 -14 169 -21 198 -10
46 -10 55 4 65 8 7 22 29 31 49 16 39 41 61 63 53 8 -3 58 -5 111 -5z m-1679
-42 c0 -12 -1 -19 -3 -17 -1 2 -9 12 -16 22 -12 14 -11 17 3 17 10 0 16 -8 16
-22z m2070 13 c0 -17 -15 -19 -35 -5 -18 13 -18 14 8 14 15 0 27 -4 27 -9z
m-1202 -37 c21 -17 32 -34 32 -50 0 -21 4 -24 19 -19 31 10 46 -28 31 -76 -10
-28 -10 -42 -2 -52 6 -7 11 -33 11 -58 -1 -105 21 -349 35 -402 19 -70 19 -67
2 -67 -8 0 -18 -9 -21 -20 -5 -15 -16 -20 -43 -21 -20 -1 -40 -1 -44 0 -4 0
-53 4 -108 7 -77 6 -100 4 -100 -6 0 -9 -12 -10 -47 -5 -27 4 -85 7 -131 6
-66 -2 -83 1 -88 14 -4 8 -1 21 4 28 22 27 33 117 33 272 0 88 -4 192 -9 232
-8 68 -7 72 12 75 13 2 23 14 28 36 6 24 14 32 31 32 104 3 197 18 203 35 3 8
14 17 23 20 10 3 24 17 31 31 17 30 47 27 98 -12z m-1223 -34 c-3 -5 -10 -10
-16 -10 -5 0 -9 5 -9 10 0 6 7 10 16 10 8 0 12 -4 9 -10z m807 -21 c-9 -11
-18 -15 -20 -9 -7 19 7 40 22 34 12 -5 12 -8 -2 -25z m-1342 5 c0 -17 -22 -14
-28 4 -2 7 3 12 12 12 9 0 16 -7 16 -16z m8324 -3 c3 -5 -1 -14 -9 -21 -13
-10 -15 -9 -15 9 0 21 14 28 24 12z m-7851 -59 c-3 -12 -9 -19 -14 -16 -5 3
-3 14 3 24 15 24 19 21 11 -8z m1422 -171 c3 -5 1 -12 -5 -16 -5 -3 -10 1 -10
9 0 18 6 21 15 7z m3150 -11 c3 -5 2 -10 -4 -10 -5 0 -17 -3 -25 -6 -12 -5
-15 -2 -10 10 7 18 29 21 39 6z m295 -35 c0 -8 -4 -15 -9 -15 -13 0 -22 16
-14 24 11 11 23 6 23 -9z m-2983 -37 c-3 -8 -6 -5 -6 6 -1 11 2 17 5 13 3 -3
4 -12 1 -19z m1063 -53 c-7 -8 -16 -12 -21 -9 -13 8 -1 24 18 24 13 0 13 -3 3
-15z m1590 -76 c0 -5 14 -22 30 -37 17 -16 30 -32 30 -36 0 -12 -41 -6 -46 7
-3 8 -19 24 -35 36 -29 22 -31 22 -44 4 -13 -17 -14 -17 -21 1 -5 14 0 25 21
42 27 21 31 22 47 7 10 -9 18 -20 18 -24z m-4560 -119 c0 -5 -7 -10 -15 -10
-8 0 -15 5 -15 10 0 6 7 10 15 10 8 0 15 -4 15 -10z m300 -60 c0 -5 -4 -10 -9
-10 -6 0 -13 5 -16 10 -3 6 1 10 9 10 9 0 16 -4 16 -10z m6520 -65 c-7 -9 -15
-13 -17 -11 -7 7 7 26 19 26 6 0 6 -6 -2 -15z m412 -47 c-7 -7 -12 -8 -12 -2
0 14 12 26 19 19 2 -3 -1 -11 -7 -17z m-4110 -23 c0 -5 -5 -11 -11 -13 -6 -2
-11 4 -11 13 0 9 5 15 11 13 6 -2 11 -8 11 -13z m2418 -33 c0 -13 -12 -22 -22
-16 -10 6 -1 24 13 24 5 0 9 -4 9 -8z m-4460 -363 c0 -18 -2 -19 -15 -9 -8 7
-15 16 -15 21 0 5 7 9 15 9 9 0 15 -9 15 -21z m-120 -8 c0 -12 -20 -25 -27
-18 -7 7 6 27 18 27 5 0 9 -4 9 -9z m1330 -36 c0 -9 -6 -12 -15 -9 -8 4 -15
10 -15 15 0 5 7 9 15 9 8 0 15 -7 15 -15z m-630 -15 c0 -5 -4 -10 -10 -10 -5
0 -10 5 -10 10 0 6 5 10 10 10 6 0 10 -4 10 -10z"/>
<path d="M8500 3353 c-14 -9 -27 -19 -30 -22 -3 -3 -27 -24 -53 -45 -55 -44
-97 -87 -97 -99 0 -9 139 99 156 122 16 20 138 10 165 -14 10 -10 21 -16 24
-13 3 3 -15 24 -40 47 -49 45 -84 52 -125 24z"/>
<path d="M10006 3295 c-8 -21 -12 -19 49 -32 28 -6 61 -14 74 -19 18 -5 23 -4
19 6 -8 24 -54 51 -95 57 -32 4 -41 2 -47 -12z"/>
<path d="M7580 3025 c-9 -11 -10 -19 -2 -27 14 -14 32 -1 32 23 0 23 -13 25
-30 4z"/>
<path d="M5106 2965 c-24 -24 -11 -35 41 -35 29 0 53 -6 64 -16 24 -21 43 -10
28 17 -19 36 -108 59 -133 34z"/>
<path d="M4025 2809 c-20 -21 -13 -26 45 -31 34 -3 35 -4 38 -53 2 -27 10 -60
19 -73 8 -13 12 -30 9 -38 -3 -8 4 -33 16 -56 17 -32 21 -57 21 -111 -2 -90
36 -203 87 -262 10 -11 21 -31 25 -45 10 -33 24 -41 49 -27 12 7 22 13 24 13
10 5 -31 74 -62 106 -19 21 -38 50 -41 65 -3 16 -10 42 -15 59 -6 17 -10 39
-10 50 0 11 -5 25 -12 32 -9 9 -9 15 0 24 13 13 17 68 4 68 -19 0 -64 168 -56
210 6 28 10 30 51 30 30 0 45 5 50 16 10 26 -8 32 -119 37 -96 5 -108 4 -123
-14z"/>
<path d="M4334 2751 c-2 -2 -4 -15 -4 -28 0 -21 4 -23 58 -23 31 0 67 3 80 6
24 7 29 28 10 40 -12 8 -137 12 -144 5z"/>
<path d="M4307 2353 c-4 -3 -7 -11 -7 -17 0 -6 5 -5 12 2 6 6 9 14 7 17 -3 3
-9 2 -12 -2z"/>
<path d="M4407 2243 c11 -10 28 -38 39 -63 10 -25 27 -54 36 -64 18 -20 18
-20 18 1 0 55 -57 143 -93 143 -19 0 -19 0 0 -17z"/>
<path d="M3276 2774 c-8 -22 -9 -21 19 -26 32 -7 43 9 19 27 -25 19 -31 18
-38 -1z"/>
<path d="M3085 2693 c-70 -4 -95 -14 -95 -39 0 -11 20 -14 88 -14 112 0 132 6
132 36 0 20 -5 24 -27 22 -16 -1 -59 -4 -98 -5z"/>
<path d="M8015 4600 c-103 -15 -221 -38 -317 -63 -51 -14 -120 -30 -153 -37
-51 -10 -93 -22 -164 -46 -8 -2 -12 -6 -10 -9 3 -2 34 5 69 16 36 11 101 22
145 25 47 3 99 13 127 24 48 21 157 46 231 55 23 2 83 10 132 16 111 13 386
12 440 -3 76 -19 160 -71 234 -142 40 -39 68 -61 62 -48 -22 41 -2 23 45 -43
45 -64 74 -84 40 -28 l-17 28 22 -25 c25 -29 79 -134 79 -152 -1 -7 -14 16
-31 51 -16 35 -32 62 -35 59 -9 -9 59 -137 70 -131 5 4 7 -1 3 -11 -4 -9 -3
-15 2 -12 5 3 19 -21 31 -54 12 -33 27 -63 31 -66 12 -7 -35 123 -77 215 -19
40 -27 68 -19 61 10 -8 15 -9 15 -2 0 6 -4 14 -10 17 -5 3 -10 12 -10 18 0 7
11 -5 24 -26 30 -49 40 -58 32 -27 -6 20 -5 22 4 10 20 -28 60 -109 60 -122
-1 -7 -14 12 -30 42 -31 60 -39 61 -15 3 8 -20 14 -38 12 -40 -2 -2 -14 20
-27 49 -12 29 -24 48 -26 42 -3 -6 8 -40 24 -75 16 -35 41 -100 56 -144 23
-71 45 -121 46 -104 0 3 -9 32 -20 65 -14 43 -16 54 -5 40 8 -11 15 -26 15
-35 0 -8 3 -12 6 -8 3 3 -2 29 -11 57 -21 62 -13 79 8 18 53 -149 61 -171 64
-162 2 5 -15 61 -37 124 -22 62 -38 115 -36 117 2 2 11 -15 20 -39 8 -24 36
-97 60 -163 57 -155 60 -165 41 -132 -17 29 -31 37 -21 11 3 -8 2 -13 -3 -10
-5 3 -19 31 -31 61 -12 31 -25 54 -27 51 -2 -2 11 -38 31 -80 19 -42 33 -76
31 -76 -3 0 -18 24 -35 53 -36 63 -40 55 -6 -12 19 -37 21 -48 10 -48 -8 0
-12 2 -9 5 5 5 -52 122 -60 122 -6 0 15 -47 33 -77 8 -12 11 -26 8 -31 -3 -5
1 -18 9 -28 16 -21 19 -35 8 -33 -5 1 -11 1 -16 0 -10 -1 21 -61 32 -61 4 0
21 20 37 45 15 25 34 45 41 45 17 0 18 -4 -22 90 -19 45 -45 114 -57 153 -12
40 -32 98 -45 131 -13 32 -22 60 -20 63 5 4 3 10 80 -202 78 -213 87 -233 98
-213 9 16 -53 216 -100 322 -22 51 -29 86 -9 51 6 -11 19 -28 30 -38 10 -10
16 -23 12 -28 -3 -5 11 -60 32 -122 31 -93 39 -108 45 -87 4 14 8 21 8 15 1
-5 8 -32 16 -58 8 -26 10 -45 5 -42 -6 4 -10 2 -10 -4 0 -18 20 -23 26 -6 5
12 10 13 20 4 16 -13 20 2 28 100 3 35 8 67 11 69 8 8 55 -16 60 -30 2 -7 6
-34 10 -61 3 -26 10 -45 16 -42 12 8 12 91 0 132 -9 32 -9 32 13 17 13 -8 31
-12 40 -8 9 3 22 2 29 -2 7 -5 2 1 -12 13 -39 35 -141 83 -175 83 -18 0 -37
-5 -44 -12 -10 -10 -29 4 -90 63 -120 118 -251 221 -442 347 -253 168 -247
166 -510 168 -118 1 -242 -2 -275 -6z m1205 -655 c65 -188 64 -184 47 -155 -8
14 -29 66 -46 117 -17 50 -44 126 -61 169 -16 43 -30 83 -30 89 1 20 43 -84
90 -220z m36 75 c5 0 10 -7 12 -17 3 -15 1 -16 -7 -3 -16 22 -13 11 9 -49 27
-69 20 -77 -7 -8 -26 64 -38 108 -25 89 5 -8 13 -13 18 -12z m40 -47 c-3 -8
-2 -12 3 -8 5 3 12 -1 15 -7 3 -7 3 -2 0 10 -5 22 -4 23 16 12 23 -12 23 -47
0 -42 -11 3 -10 -2 3 -16 11 -12 15 -26 11 -37 -6 -15 -9 -15 -21 6 -9 15 -12
17 -9 6 18 -57 13 -64 -7 -12 -38 94 -39 102 -22 102 9 0 14 -6 11 -14z m214
-3 c14 -11 21 -20 17 -20 -5 0 -20 9 -34 20 -14 11 -22 20 -17 20 5 0 20 -9
34 -20z m-159 -117 c-12 -20 -14 -14 -5 12 4 9 9 14 11 11 3 -2 0 -13 -6 -23z"/>
<path d="M7949 4453 c-1 -27 -3 -40 -6 -30 -5 18 -23 24 -23 7 0 -5 -9 -10
-20 -10 -11 0 -20 -5 -20 -11 0 -5 -4 -7 -10 -4 -5 3 -10 1 -10 -5 0 -6 -4 -8
-10 -5 -5 3 -10 1 -10 -6 0 -7 -8 -5 -20 6 -19 17 -20 17 -20 -1 0 -16 -2 -17
-10 -4 -8 12 -11 13 -19 1 -7 -11 -9 -11 -14 0 -4 12 -7 11 -16 -1 -6 -8 -11
-10 -11 -5 0 6 -9 11 -20 11 -14 0 -19 -5 -15 -16 3 -10 1 -9 -9 3 -14 18 -14
18 -19 0 -3 -13 -6 -10 -11 12 -4 17 -11 39 -16 50 -8 18 -9 18 -9 -5 -2 -44
-13 -71 -27 -66 -8 3 -14 1 -14 -4 0 -5 -7 -6 -17 -3 -12 5 -14 3 -8 -7 6 -10
4 -12 -8 -7 -10 3 -17 2 -17 -2 0 -5 -9 -7 -20 -4 -11 3 -26 1 -33 -4 -6 -5
-34 -8 -60 -7 -53 2 -94 32 -83 60 3 9 1 12 -4 9 -33 -20 15 -98 68 -112 19
-5 235 13 379 32 18 2 35 -1 39 -6 3 -5 14 -7 25 -4 10 4 19 2 19 -4 0 -5 -17
-15 -37 -21 -21 -7 -49 -22 -61 -34 -21 -18 -23 -28 -20 -74 6 -66 25 -86 97
-104 48 -12 54 -17 66 -52 8 -21 28 -53 45 -71 27 -28 30 -35 20 -60 -14 -36
-3 -115 16 -115 17 0 17 18 0 49 -13 24 -12 29 11 70 2 2 21 -8 43 -23 41 -27
65 -33 75 -17 3 5 -21 24 -53 41 -73 39 -130 95 -138 138 -6 32 -6 32 37 34
91 4 107 5 123 11 10 4 15 3 13 -1 -12 -18 19 -28 48 -16 18 8 23 13 13 14
-10 0 -18 4 -18 9 0 5 -8 11 -17 13 -17 3 -17 4 0 11 21 8 84 -44 73 -61 -4
-7 -12 -12 -17 -12 -6 0 -7 5 -3 11 4 7 -1 10 -12 7 -28 -5 -28 -111 0 -136
19 -17 19 -17 1 11 -14 22 -14 27 -3 27 8 0 19 -5 26 -12 7 -7 12 -8 12 -2 0
6 -5 15 -12 22 -18 18 8 40 70 58 65 19 145 13 173 -12 16 -14 24 -15 62 -5
23 7 47 12 52 11 27 -6 38 2 17 11 -13 5 -28 7 -33 3 -5 -3 -9 0 -9 5 0 6 18
11 39 11 22 0 43 5 47 11 5 9 -2 10 -22 6 l-29 -6 30 14 c28 12 23 13 -63 11
-109 -4 -142 1 -142 21 0 8 5 11 10 8 14 -9 12 1 -6 36 -18 35 -31 33 -14 -3
11 -22 10 -22 -4 -4 -9 11 -16 26 -16 33 0 7 -4 13 -10 13 -9 0 -11 -6 -14
-42 -1 -7 4 -12 11 -11 6 1 14 -5 17 -13 5 -14 -1 -15 -51 -10 -32 4 -66 9
-75 12 -19 6 -25 23 -8 25 6 1 16 2 23 3 6 1 18 -2 25 -7 7 -6 12 -6 12 0 0
12 -29 51 -30 39 0 -5 -6 -3 -14 3 -11 9 -15 8 -20 -5 -3 -9 -13 -14 -20 -11
-8 3 -17 1 -20 -6 -3 -7 -3 0 0 16 4 16 2 27 -5 27 -6 0 -11 15 -12 33 l-1 32
-11 -35 c-8 -27 -11 -31 -15 -15 -4 16 -6 15 -17 -10 -9 -20 -14 -24 -14 -12
-1 9 -5 17 -11 17 -15 0 -12 -21 7 -42 17 -19 5 -26 -13 -8 -13 13 -60 -5 -68
-26 -7 -17 8 -26 28 -18 14 5 14 9 4 23 -12 14 -11 14 4 3 9 -8 22 -11 27 -8
15 9 23 -10 8 -21 -23 -19 -65 -24 -70 -9 -7 18 -67 18 -74 0 -2 -7 -12 -10
-21 -8 -13 5 -13 2 2 -10 17 -14 17 -16 4 -16 -9 0 -20 5 -23 10 -3 6 -22 10
-41 10 -41 0 -89 22 -98 45 -10 26 -8 26 19 0 26 -27 65 -32 112 -14 69 26 92
82 52 125 -17 18 -26 21 -47 14 -51 -16 -97 -21 -86 -10 6 6 28 13 50 17 21 3
60 19 85 34 59 38 150 55 386 74 228 19 217 19 209 -1 -4 -10 6 -32 24 -57 23
-31 30 -36 30 -21 1 19 1 19 15 0 8 -11 15 -15 15 -10 0 17 -29 51 -30 35 0
-11 -3 -11 -16 -1 -8 8 -20 23 -26 34 -10 19 -9 19 15 -2 18 -17 26 -20 29
-10 3 7 16 -5 33 -30 31 -46 40 -53 30 -21 -5 16 -4 19 5 14 9 -5 11 -4 6 4
-4 6 -11 9 -16 6 -5 -3 -12 0 -16 6 -4 7 -3 9 4 5 5 -3 12 -1 14 6 3 7 26 -19
51 -57 31 -45 47 -63 47 -50 0 18 2 18 19 -4 16 -21 51 -38 51 -25 0 3 -11 22
-25 42 -14 20 -25 33 -25 29 0 -4 7 -19 16 -33 9 -13 14 -27 12 -30 -3 -3 -17
16 -31 41 -14 25 -20 42 -14 38 7 -4 17 -8 22 -8 6 0 25 -24 44 -52 45 -69 52
-60 11 13 -40 69 -89 126 -101 118 -5 -3 -30 13 -56 35 -43 38 -70 49 -44 18
9 -12 1 -12 -51 0 -38 9 -85 13 -118 9 -61 -6 -84 2 -74 27 7 20 -6 22 -25 5
-11 -11 -12 -8 -7 17 l6 30 -33 -38 c-31 -36 -52 -42 -40 -11 6 17 -13 19 -20
2 -4 -8 -8 -4 -12 10 -9 28 -16 28 -47 -1 -14 -13 -30 -21 -36 -19 -8 2 -10
-3 -7 -15 4 -11 1 -9 -6 5 -12 21 -29 30 -29 14 0 -6 -70 -8 -77 -2 -2 2 -6 3
-10 4 -5 1 -14 5 -21 9 -10 7 -11 2 -7 -20 4 -20 0 -16 -15 16 -25 53 -38 49
-15 -4 8 -21 13 -40 10 -43 -2 -3 -13 16 -24 42 -11 25 -25 46 -31 46 -5 0
-11 -21 -11 -47z m645 -69 c5 -14 4 -15 -9 -4 -17 14 -19 20 -6 20 5 0 12 -7
15 -16z m-674 -52 c0 -4 -9 -8 -20 -9 -11 -1 -20 2 -20 5 0 4 9 8 20 9 11 1
20 -2 20 -5z m830 -43 c12 -16 20 -32 17 -35 -2 -3 -14 11 -25 31 -26 43 -21
46 8 4z m-805 -49 c14 -23 -37 -57 -110 -74 -22 -5 -26 -4 -15 4 12 8 11 10
-8 10 -39 0 -22 30 28 51 51 20 96 24 105 9z"/>
<path d="M8640 4495 c0 -2 10 -10 23 -16 20 -11 21 -11 8 4 -13 16 -31 23 -31
12z"/>
<path d="M8731 4417 c28 -22 98 -118 135 -183 38 -68 50 -81 33 -36 -30 80
-144 232 -172 232 -7 -1 -5 -6 4 -13z"/>
<path d="M8720 4396 c0 -2 8 -10 18 -17 15 -13 16 -12 3 4 -13 16 -21 21 -21
13z"/>
<path d="M3540 4364 c-236 -37 -386 -79 -453 -126 -59 -41 -319 -292 -402
-388 -45 -52 -112 -136 -148 -186 -61 -83 -69 -90 -95 -86 -41 6 -96 -26 -174
-100 -36 -34 -81 -76 -100 -91 l-33 -28 40 27 c22 15 64 50 93 78 51 50 73 55
30 8 l-23 -25 26 17 26 17 2 -61 c1 -57 27 -140 43 -140 11 0 10 8 -2 30 -6
11 -12 43 -15 73 -4 49 -2 56 25 82 l29 27 11 -43 c30 -116 40 -131 58 -81 9
22 11 23 12 7 1 -11 8 3 15 30 10 39 13 44 14 21 2 -48 11 -24 26 70 8 49 17
102 20 117 3 17 1 26 -5 22 -14 -9 -12 11 3 27 7 7 18 24 25 38 12 25 12 25 6
-5 -20 -100 -54 -291 -54 -308 0 -46 11 -3 35 138 24 141 42 224 44 199 1 -6
-4 -36 -10 -65 -20 -105 -48 -283 -44 -287 4 -5 23 85 37 178 6 41 13 69 16
62 2 -7 -4 -58 -13 -113 -9 -56 -15 -103 -13 -105 4 -3 27 116 55 274 3 18 7
31 10 29 2 -3 -3 -50 -12 -107 -9 -56 -14 -104 -12 -106 3 -3 10 28 16 68 7
40 16 87 21 103 8 25 9 19 6 -30 -1 -33 -1 -50 1 -37 7 36 19 25 17 -15 -2
-26 1 -21 8 17 25 133 59 272 69 288 9 15 10 15 6 1 -17 -53 -57 -253 -54
-262 2 -7 7 3 11 21 4 18 11 30 14 28 4 -2 7 16 8 41 1 25 5 48 10 51 5 4 10
25 10 48 2 35 42 150 50 141 2 -1 -8 -33 -21 -70 -39 -106 -29 -103 14 4 32
82 71 157 71 138 0 -4 -15 -39 -34 -80 -32 -70 -69 -189 -62 -197 2 -2 19 41
36 95 41 122 70 182 126 255 99 128 209 190 379 213 27 4 62 13 77 21 15 8 37
13 50 12 13 -1 86 5 164 12 80 7 184 10 240 6 54 -3 104 -6 109 -6 6 -1 75 3
155 7 222 11 109 22 -225 21 -184 0 -309 -5 -365 -14z m-772 -459 c-6 -14 -13
-23 -15 -21 -5 5 15 46 22 46 3 0 -1 -11 -7 -25z m-53 -85 c-8 -23 -15 -51
-15 -61 0 -10 -5 -21 -11 -25 -14 -8 -7 27 18 94 21 55 28 48 8 -8z m19 -14
c-3 -15 -8 -25 -11 -23 -2 3 -1 17 3 31 3 15 8 25 11 23 2 -3 1 -17 -3 -31z
m-17 -58 c-3 -8 -6 -5 -6 6 -1 11 2 17 5 13 3 -3 4 -12 1 -19z m-77 -53 c-6
-31 -14 -54 -17 -52 -3 3 1 31 8 61 7 31 14 54 16 52 3 -2 -1 -30 -7 -61z
m-101 -162 c-10 -49 -13 -54 -19 -33 -6 20 -9 13 -15 -35 -8 -53 -10 -56 -16
-30 -6 28 -7 28 -8 5 -1 -23 -2 -24 -13 -6 -8 15 -7 25 6 46 9 16 16 41 16 57
0 22 2 25 10 13 9 -13 10 -13 11 0 0 10 3 9 10 -5 7 -15 7 -11 3 14 -4 23 -3
31 5 27 6 -4 11 -2 11 5 0 7 3 10 6 6 3 -3 0 -32 -7 -64z m-65 -28 c-6 -23 -8
-25 -16 -11 -6 11 -6 22 3 32 16 20 21 12 13 -21z"/>
<path d="M8500 4356 c0 -13 7 -27 16 -30 12 -4 15 -2 10 9 -3 8 0 15 6 15 7 0
6 5 -2 15 -18 22 -30 18 -30 -9z"/>
<path d="M8820 4366 c0 -5 6 -17 14 -25 8 -9 35 -56 61 -106 52 -99 76 -132
50 -70 -32 78 -124 226 -125 201z"/>
<path d="M8540 4336 c0 -2 8 -10 18 -17 15 -13 16 -12 3 4 -13 16 -21 21 -21
13z"/>
<path d="M4311 4319 c6 -26 -21 -57 -57 -69 -39 -13 -154 -20 -154 -9 0 3 -12
5 -26 3 -21 -2 -28 4 -44 39 -20 45 -23 42 -20 -12 1 -24 -2 -31 -10 -26 -7 4
-16 1 -21 -6 -5 -9 -9 -10 -9 -2 0 9 -27 11 -37 3 -2 -2 -6 -3 -10 -4 -5 -1
-14 -5 -20 -9 -8 -5 -13 -3 -13 5 -1 8 -6 6 -15 -6 -15 -20 -15 -20 -15 0 -1
16 -3 16 -15 -6 -13 -23 -14 -23 -15 -5 -1 11 -4 15 -6 8 -4 -8 -13 -9 -27 -4
-12 5 -30 7 -39 6 -10 -2 -18 1 -18 6 0 16 -18 9 -23 -8 -3 -10 -5 -5 -6 12
-1 32 -16 63 -26 54 -3 -4 -12 -26 -19 -50 l-15 -44 6 44 c4 32 3 42 -5 37 -7
-4 -12 -20 -12 -36 0 -16 -5 -32 -11 -36 -8 -4 -9 0 -4 15 4 12 2 21 -4 21 -6
0 -11 -8 -11 -17 0 -15 -2 -16 -10 -3 -7 12 -10 12 -10 1 0 -7 -6 -11 -15 -7
-8 3 -19 -2 -24 -12 -6 -9 -11 -12 -11 -6 0 19 -34 11 -47 -11 -12 -19 -12
-19 -13 -1 0 11 -3 17 -6 13 -4 -3 -19 0 -35 8 -38 20 -49 19 -49 -5 0 -13 -5
-18 -15 -14 -11 5 -13 2 -9 -10 9 -23 -15 -20 -43 6 -26 24 -43 18 -22 -8 12
-15 11 -16 -10 -9 -19 6 -23 4 -18 -8 8 -21 -12 -37 -48 -37 -26 0 -115 -28
-180 -55 -18 -8 -19 -7 -6 8 7 9 9 17 4 17 -5 0 -26 -20 -47 -45 -20 -25 -41
-43 -45 -40 -5 2 -19 -15 -32 -40 -13 -24 -25 -42 -27 -40 -4 4 35 82 61 120
l21 30 -21 -18 c-28 -24 -76 -117 -102 -196 -26 -79 -26 -88 0 -36 18 36 20
37 15 10 -3 -19 5 -7 24 33 16 35 34 61 39 58 5 -4 12 -2 16 4 4 6 11 8 16 5
5 -4 9 1 9 9 0 8 5 18 11 21 5 4 3 -10 -5 -30 -28 -65 -16 -62 19 5 19 36 34
58 35 50 0 -13 1 -13 10 0 13 20 13 4 -1 -22 -6 -11 -8 -22 -5 -25 2 -3 16 18
30 46 30 58 42 68 20 16 -22 -54 -16 -55 12 -2 14 27 28 47 30 44 3 -3 -2 -17
-11 -31 -9 -14 -15 -31 -13 -38 3 -7 15 6 26 29 24 47 27 57 12 48 -5 -3 -10
0 -10 8 0 10 26 17 98 26 53 6 144 18 202 26 141 19 241 19 288 -1 21 -9 60
-16 89 -15 28 1 54 -3 58 -9 4 -6 -16 -10 -58 -10 -59 0 -65 -2 -75 -25 -19
-41 -14 -58 21 -82 24 -17 47 -23 83 -23 51 1 72 11 92 45 10 17 11 18 12 3 0
-19 -33 -58 -50 -58 -6 0 -30 -9 -55 -21 -24 -11 -50 -19 -57 -16 -8 4 -6 6 5
6 9 1 17 5 17 11 0 5 -6 7 -14 4 -8 -3 -17 0 -21 5 -3 6 -12 8 -18 4 -20 -12
-46 -10 -51 4 -4 8 -15 12 -31 9 -18 -3 -25 0 -25 11 0 14 -3 13 -22 -3 -13
-10 -17 -12 -10 -4 6 8 12 20 12 27 0 20 -20 16 -21 -4 0 -12 -5 -8 -14 12 -9
19 -14 24 -15 13 0 -25 -20 -23 -20 1 0 11 -5 23 -12 27 -8 5 -9 -2 -5 -24 4
-19 2 -32 -3 -32 -6 0 -10 -9 -10 -19 0 -11 -5 -23 -12 -27 -8 -5 -9 -2 -5 9
3 10 2 17 -3 17 -6 0 -10 -5 -10 -11 0 -5 -4 -7 -10 -4 -5 3 -10 1 -10 -4 0
-6 -5 -10 -11 -8 -6 1 -15 -9 -21 -23 -7 -20 -7 -23 3 -12 7 6 24 12 37 12 40
0 8 -27 -53 -45 -64 -18 -66 -18 -59 -2 2 7 14 14 26 14 23 2 38 19 38 43 -1
11 -4 10 -15 -4 -11 -14 -15 -16 -15 -5 0 12 -2 12 -10 -1 -8 -12 -10 -12 -11
5 0 16 -3 14 -14 -10 -11 -24 -14 -26 -15 -10 0 16 -2 17 -9 5 -5 -8 -12 -26
-15 -40 -7 -24 -6 -24 8 -6 16 19 16 19 16 -2 0 -15 -9 -26 -27 -33 -16 -6
-36 -15 -45 -20 -10 -5 -45 -9 -77 -9 -59 0 -98 -19 -44 -21 l28 -1 -30 -8
c-29 -7 -29 -8 9 -9 l40 -1 -31 -27 c-16 -16 -33 -35 -36 -43 -4 -11 -6 -10
-7 5 l-1 20 -9 -20 c-7 -17 -9 -16 -10 10 -1 17 -4 24 -7 17 -3 -7 -2 -34 2
-59 5 -33 9 -42 16 -32 7 11 9 10 10 -6 1 -17 2 -16 9 5 7 21 8 21 9 5 1 -21
-12 -47 -23 -46 -19 3 -25 -1 -31 -20 -4 -11 -9 -18 -12 -15 -8 8 -43 -13 -43
-25 0 -6 5 -7 11 -3 7 4 9 0 5 -13 -9 -28 20 -26 33 3 6 13 17 21 28 20 12 -2
20 5 24 23 3 14 10 25 17 24 7 -2 12 3 12 11 0 8 5 18 11 22 9 5 10 -1 5 -22
-4 -16 -7 -37 -7 -46 0 -28 -37 -44 -51 -23 -5 6 -8 2 -8 -8 0 -10 -4 -16 -9
-13 -5 3 -11 -1 -15 -9 -3 -8 -2 -14 2 -13 4 1 27 -4 51 -11 23 -7 45 -10 48
-8 2 3 20 -3 39 -12 39 -19 104 -16 104 4 0 8 -10 16 -22 18 -13 2 5 5 40 6
49 1 62 4 62 17 0 8 4 13 9 10 5 -3 12 2 15 11 4 9 1 20 -6 24 -17 11 67 48
110 49 17 0 32 4 32 9 0 5 13 11 29 14 15 3 54 30 86 58 46 43 60 51 73 42 17
-11 19 -36 7 -100 -3 -18 -11 -33 -16 -33 -11 0 -48 -40 -49 -52 0 -4 8 -14
17 -23 16 -16 17 -16 30 1 7 10 13 28 13 41 0 13 9 32 21 44 18 18 20 28 14
67 -4 26 -13 57 -21 69 -13 21 -12 28 16 76 16 30 30 65 30 78 0 19 12 30 58
55 47 25 59 36 66 66 19 75 -15 123 -94 134 -39 5 -50 10 -46 21 4 8 6 18 6
21 0 4 5 0 10 -8 8 -13 11 -13 19 -1 5 8 16 11 24 8 9 -3 30 -2 47 3 18 5 87
14 153 20 166 15 197 23 230 60 27 31 36 73 16 85 -6 4 -9 1 -8 -6z m-511
-168 c0 -5 -9 -11 -20 -14 -11 -3 -20 -1 -20 3 0 5 8 11 18 13 9 3 18 5 20 6
1 0 2 -3 2 -8z m-680 -85 c0 -3 -4 -8 -10 -11 -5 -3 -10 -1 -10 4 0 6 5 11 10
11 6 0 10 -2 10 -4z m776 -13 c8 -3 14 -14 14 -25 0 -10 -4 -16 -10 -13 -5 3
-10 1 -10 -6 0 -16 -107 -3 -126 15 -19 20 -18 25 9 36 21 9 93 5 123 -7z
m-205 -143 c6 0 8 -4 5 -8 -7 -12 -82 1 -78 13 1 6 6 10 11 10 5 0 12 3 16 7
4 4 14 1 22 -7 8 -8 19 -15 24 -15z m-810 -27 c-12 -20 -14 -14 -5 12 4 9 9
14 11 11 3 -2 0 -13 -6 -23z m707 -13 c-7 -11 -17 -20 -23 -21 -13 -1 26 -17
43 -18 7 -1 10 4 7 9 -3 6 2 10 12 10 15 0 16 2 3 10 -11 7 -6 10 20 10 19 -1
63 2 98 6 57 6 62 5 62 -13 0 -44 -47 -109 -125 -175 -44 -36 -82 -64 -84 -62
-3 2 1 10 7 16 7 7 12 17 12 23 0 5 -14 -6 -30 -25 -16 -19 -30 -29 -30 -22 0
8 -5 10 -12 6 -7 -4 -4 2 6 14 11 12 17 25 14 28 -3 3 -15 -7 -27 -22 -11 -15
-21 -21 -21 -15 0 7 -5 9 -11 6 -6 -4 -10 -1 -8 6 3 28 -2 39 -18 39 -17 1
-17 1 0 11 9 5 17 18 17 29 0 16 -8 18 -69 16 -41 -1 -75 -7 -85 -15 -9 -7
-16 -10 -16 -5 0 4 -5 3 -12 -4 -7 -7 -15 -33 -19 -60 -6 -45 -6 -45 -8 -9 0
21 5 53 13 71 11 28 24 37 66 51 85 28 226 7 190 -29 -16 -16 -12 -30 6 -15
13 10 17 10 24 0 5 -9 10 -10 14 -2 4 6 3 11 -3 11 -6 0 -9 19 -7 45 3 37 0
45 -16 51 -11 3 -22 3 -25 0 -4 -3 -1 -6 6 -6 7 0 10 -4 7 -9 -3 -5 -15 -7
-26 -4 -18 5 -18 7 -5 34 14 26 40 48 58 49 4 0 2 -9 -5 -20z m-328 -177 c0
-12 -4 -25 -10 -28 -6 -4 -10 5 -10 20 0 15 -4 24 -10 20 -5 -3 -10 -2 -10 4
0 5 9 9 20 8 14 -1 20 -8 20 -24z m180 17 c0 -5 -12 -10 -26 -10 -14 0 -23 4
-19 10 3 6 15 10 26 10 10 0 19 -4 19 -10z m-60 -37 c-8 -3 -21 -10 -27 -16
-9 -7 -13 -5 -13 7 0 11 8 16 28 15 15 0 21 -3 12 -6z m13 -20 c-7 -2 -19 -2
-25 0 -7 3 -2 5 12 5 14 0 19 -2 13 -5z m-168 -42 c-3 -12 -11 -19 -16 -16 -5
4 -5 14 2 26 13 26 23 18 14 -10z m182 23 c-3 -3 -12 -4 -19 -1 -8 3 -5 6 6 6
11 1 17 -2 13 -5z m38 -14 c-3 -5 -16 -10 -28 -10 -18 0 -19 2 -7 10 20 13 43
13 35 0z m-155 -100 c0 -5 -7 -10 -16 -10 -8 0 -12 5 -9 10 3 6 10 10 16 10 5
0 9 -4 9 -10z m97 -36 c2 -7 -17 -12 -52 -13 -50 -1 -55 0 -43 14 15 17 89 17
95 -1z"/>
<path d="M3576 3692 c-4 -7 -4 -17 -1 -22 4 -6 1 -19 -7 -28 -12 -15 -11 -16
5 -3 20 16 46 58 29 47 -6 -3 -12 -1 -14 6 -3 9 -6 9 -12 0z"/>
<path d="M3512 3664 c12 -26 22 -24 39 9 12 22 12 22 -10 3 -16 -14 -20 -16
-16 -5 4 10 0 16 -9 16 -11 0 -12 -5 -4 -23z"/>
<path d="M8699 4282 c6 -12 16 -24 22 -28 8 -4 8 -1 0 14 -6 12 -16 24 -22 28
-8 4 -8 1 0 -14z"/>
<path d="M8471 4185 c-12 -15 -18 -31 -14 -38 4 -7 -1 -5 -11 3 -25 20 -46 22
-39 3 4 -10 8 -11 13 -3 5 8 9 7 13 -4 4 -9 1 -16 -5 -16 -9 0 -9 -3 -1 -11
15 -15 85 5 108 31 18 20 18 20 -18 5 -31 -13 -37 -13 -37 -1 0 7 7 19 15 26
8 7 15 16 15 21 0 16 -16 9 -39 -16z"/>
<path d="M8290 4176 c0 -4 5 -17 11 -29 l12 -21 9 23 c5 13 6 26 3 29 -3 3 -5
0 -5 -8 0 -10 -3 -10 -15 0 -8 7 -15 9 -15 6z"/>
<path d="M8549 4143 c-14 -16 -34 -34 -44 -41 -18 -11 -16 -12 15 -7 19 3 44
15 55 27 19 20 19 21 1 14 -19 -7 -19 -6 -1 14 10 11 14 20 9 20 -5 0 -21 -12
-35 -27z"/>
<path d="M3010 4135 c-11 -13 -10 -14 4 -9 9 3 16 10 16 15 0 13 -6 11 -20 -6z"/>
<path d="M5655 4110 c-3 -5 -1 -10 4 -10 6 0 11 5 11 10 0 6 -2 10 -4 10 -3 0
-8 -4 -11 -10z"/>
<path d="M6526 4102 c-2 -4 27 -42 65 -84 63 -69 68 -79 59 -102 -8 -23 -15
-26 -59 -26 -43 0 -49 -3 -53 -24 -3 -15 8 -50 29 -93 53 -104 60 -113 93
-113 38 0 38 9 0 45 -16 16 -30 32 -30 36 0 4 -14 31 -32 59 -26 43 -29 53
-17 61 36 22 76 1 127 -68 20 -27 42 -59 48 -69 7 -11 15 -16 18 -13 4 4 -13
38 -37 76 -30 47 -46 83 -49 115 -5 46 -5 47 26 50 44 4 48 35 5 36 -24 1 -39
10 -61 37 -31 36 -123 91 -132 77z"/>
<path d="M6050 4091 c0 -6 5 -13 10 -16 12 -7 14 -75 2 -75 -4 0 -19 8 -32 17
-16 11 -44 17 -80 18 -37 0 -71 8 -103 24 -40 20 -58 22 -103 17 -34 -4 -54
-2 -54 4 0 5 -6 10 -14 10 -9 0 -12 -7 -9 -20 8 -32 27 -42 57 -30 20 7 36 6
66 -6 22 -9 40 -20 40 -24 0 -5 -13 -22 -30 -38 -22 -23 -30 -40 -30 -66 0
-35 -1 -36 -37 -37 -60 -3 -65 -4 -125 -22 -31 -9 -70 -29 -87 -43 l-31 -26
-10 26 c-5 14 -7 47 -3 74 4 35 1 57 -12 82 -17 34 -17 34 9 55 25 20 35 45
18 45 -4 0 -20 -14 -36 -32 -23 -27 -26 -37 -21 -67 10 -50 10 -50 1 -104 -6
-36 -4 -55 8 -81 9 -19 16 -51 16 -71 0 -30 7 -44 37 -71 20 -19 41 -34 46
-34 4 0 5 -4 2 -10 -11 -18 -123 -11 -175 11 -73 31 -97 21 -35 -16 47 -28 56
-30 176 -32 99 -1 137 -6 180 -22 63 -24 59 -24 59 -12 0 10 -27 26 -89 55
-19 9 -53 34 -77 56 -24 22 -47 40 -51 40 -5 0 -14 10 -21 21 -12 19 -11 24
13 49 37 39 117 71 189 77 79 7 96 17 96 54 0 33 20 79 44 99 27 21 103 31
152 19 37 -10 59 -27 129 -102 47 -49 88 -88 90 -85 3 2 -21 35 -52 73 -50 60
-57 75 -59 116 -2 50 -30 109 -51 109 -7 0 -13 -4 -13 -9z"/>
<path d="M6410 4095 c0 -2 20 -26 45 -52 25 -25 45 -52 45 -58 0 -12 -104 -85
-120 -85 -4 0 -14 7 -21 17 -8 9 -38 34 -66 55 -46 34 -53 43 -53 73 0 19 -4
35 -10 35 -5 0 -10 -16 -10 -35 0 -30 12 -48 81 -122 45 -49 85 -98 90 -111
21 -56 3 -105 -56 -152 -44 -35 -40 -34 -68 -16 -12 8 -49 18 -82 21 -60 7
-95 26 -95 51 0 34 -50 123 -78 139 -16 10 -37 32 -45 49 l-16 31 0 -32 c-1
-17 4 -35 9 -38 14 -9 70 -107 70 -122 0 -8 -12 -13 -29 -13 -16 0 -51 -11
-77 -24 -37 -19 -53 -22 -68 -14 -11 6 -41 8 -70 4 -28 -4 -61 -7 -74 -6 -13
0 -20 -5 -17 -10 8 -13 68 -13 81 -1 8 8 76 -8 89 -21 2 -2 -4 -29 -13 -60
-14 -48 -21 -58 -44 -63 -33 -8 -54 -30 -38 -40 25 -16 100 37 100 70 0 37 27
91 54 109 14 9 45 16 71 16 37 0 51 -6 84 -35 33 -30 46 -35 87 -35 27 0 62
-7 78 -15 15 -8 36 -15 45 -15 26 0 92 37 127 71 l32 31 30 -22 c18 -13 40
-20 57 -18 l27 3 -23 29 c-12 16 -37 35 -56 42 -23 10 -33 21 -33 37 0 12 -7
35 -16 52 l-15 29 54 51 c59 55 74 84 58 114 -21 38 -121 109 -121 86z"/>
<path d="M5510 4070 c0 -5 5 -10 10 -10 6 0 10 5 10 10 0 6 -4 10 -10 10 -5 0
-10 -4 -10 -10z"/>
<path d="M3157 4034 c-10 -20 -15 -39 -12 -42 3 -3 5 -1 5 4 0 6 7 19 15 30
13 18 14 18 8 -6 -6 -23 -5 -24 11 -11 18 15 18 52 0 58 -5 2 -18 -13 -27 -33z"/>
<path d="M2960 4030 c-6 -11 -8 -20 -6 -20 3 0 10 9 16 20 6 11 8 20 6 20 -3
0 -10 -9 -16 -20z"/>
<path d="M8332 3998 c-4 -4 -21 -9 -37 -10 -32 -3 -71 -33 -55 -43 6 -4 10 -1
10 6 0 8 3 9 14 0 10 -8 19 -6 39 9 15 12 40 20 62 20 25 0 35 4 33 13 -5 13
-54 17 -66 5z"/>
<path d="M3016 3965 c-9 -26 -7 -32 5 -12 6 10 9 21 6 23 -2 3 -7 -2 -11 -11z"/>
<path d="M5285 3944 c-38 -20 -74 -40 -79 -45 -5 -4 -17 -4 -27 1 -29 16 -32
-6 -3 -27 26 -19 26 -21 13 -59 -15 -46 -34 -64 -65 -64 -13 0 -29 -9 -37 -21
-13 -18 -21 -20 -61 -14 -31 5 -46 4 -46 -4 0 -6 15 -11 33 -11 38 0 64 -17
69 -45 2 -11 11 -21 21 -23 14 -3 17 2 15 23 -5 43 39 70 108 68 60 -2 70 9
23 26 -28 10 -30 13 -24 43 9 39 46 108 59 108 12 0 95 63 96 73 0 14 -26 6
-95 -29z"/>
<path d="M2935 3894 c-8 -21 -14 -42 -12 -48 2 -5 11 10 21 33 9 24 15 46 12
48 -3 3 -12 -12 -21 -33z"/>
<path d="M2996 3913 c-6 -14 -5 -15 5 -6 7 7 10 15 7 18 -3 3 -9 -2 -12 -12z"/>
<path d="M6740 3912 c0 -7 18 -52 41 -100 70 -152 89 -202 89 -245 1 -29 2
-30 14 -14 7 9 21 17 31 17 21 0 44 27 45 53 0 10 8 17 18 17 42 0 45 30 11
113 -19 45 -29 31 -23 -30 6 -63 -4 -86 -43 -97 -18 -6 -22 -2 -28 26 -8 36
-52 124 -90 178 -14 19 -34 48 -45 65 -11 16 -20 24 -20 17z"/>
<path d="M9600 3913 c8 -3 27 -12 43 -20 15 -7 27 -11 27 -9 0 8 -58 36 -72
35 -9 0 -8 -2 2 -6z"/>
<path d="M3220 3901 c0 -5 7 -14 15 -21 26 -21 17 -33 -20 -27 -20 3 -33 2
-30 -3 6 -9 69 -30 92 -30 19 0 43 30 42 53 -1 20 -2 20 -9 -3 -6 -20 -8 -21
-9 -6 -1 20 -1 20 -16 0 -13 -16 -14 -16 -9 -1 4 11 1 17 -10 17 -9 0 -16 4
-16 9 0 5 -7 11 -15 15 -8 3 -15 2 -15 -3z"/>
<path d="M2906 3875 c-9 -26 -7 -32 5 -12 6 10 9 21 6 23 -2 3 -7 -2 -11 -11z"/>
<path d="M9540 3886 c0 -9 30 -14 35 -6 4 6 -3 10 -14 10 -12 0 -21 -2 -21 -4z"/>
<path d="M9610 3880 c20 -13 33 -13 25 0 -3 6 -14 10 -23 10 -15 0 -15 -2 -2
-10z"/>
<path d="M3140 3851 c0 -5 8 -12 17 -15 15 -6 15 -8 3 -16 -11 -7 -8 -11 13
-19 36 -14 77 -14 77 -1 0 6 -11 10 -24 10 -13 0 -29 7 -36 16 -18 20 -50 37
-50 25z"/>
<path d="M9054 3847 c9 -27 78 -129 83 -123 3 2 -17 35 -42 73 -26 37 -45 60
-41 50z"/>
<path d="M8976 3807 c3 -10 9 -15 12 -12 3 3 0 11 -7 18 -10 9 -11 8 -5 -6z"/>
<path d="M9445 3809 c-4 -6 -5 -12 -2 -15 2 -3 7 2 10 11 7 17 1 20 -8 4z"/>
<path d="M9461 3754 c0 -11 3 -14 6 -6 3 7 2 16 -1 19 -3 4 -6 -2 -5 -13z"/>
<path d="M9415 3730 c-4 -12 -5 -24 -2 -27 3 -2 8 5 12 17 4 12 5 24 2 27 -3
2 -8 -5 -12 -17z"/>
<path d="M3071 3635 c-1 -21 -4 -26 -10 -16 -7 11 -10 9 -15 -8 -3 -11 -9 -31
-12 -42 -4 -14 -2 -19 5 -15 6 4 11 17 12 29 0 21 1 21 9 2 7 -19 8 -18 15 6
4 15 5 38 2 50 -4 20 -5 19 -6 -6z"/>
<path d="M9210 3642 c6 -13 14 -21 18 -18 3 4 -2 14 -12 24 -18 16 -18 16 -6
-6z"/>
<path d="M3092 3615 c0 -16 2 -22 5 -12 2 9 2 23 0 30 -3 6 -5 -1 -5 -18z"/>
<path d="M5240 3620 c0 -5 7 -7 15 -4 8 4 15 8 15 10 0 2 -7 4 -15 4 -8 0 -15
-4 -15 -10z"/>
<path d="M3017 3613 c-4 -3 -7 -20 -6 -37 l1 -31 9 34 c10 33 8 47 -4 34z"/>
<path d="M4517 3597 c-12 -12 -33 -37 -47 -56 -14 -19 -35 -45 -47 -58 -30
-32 -29 -37 7 -29 33 6 79 35 80 50 0 5 13 30 29 56 28 45 30 60 9 60 -5 0
-19 -10 -31 -23z"/>
<path d="M2991 3594 c0 -11 3 -14 6 -6 3 7 2 16 -1 19 -3 4 -6 -2 -5 -13z"/>
<path d="M2970 3517 c-11 -42 -15 -48 -21 -32 -8 19 -9 19 -6 1 5 -39 25 -26
37 24 7 28 10 53 8 55 -2 3 -10 -19 -18 -48z"/>
<path d="M2920 3510 c-6 -23 -9 -47 -7 -53 2 -7 9 10 15 38 13 61 7 72 -8 15z"/>
<path d="M3497 3527 c-11 -29 -9 -43 4 -30 6 6 9 19 7 29 -3 18 -4 18 -11 1z"/>
<path d="M2681 3514 c0 -11 3 -14 6 -6 3 7 2 16 -1 19 -3 4 -6 -2 -5 -13z"/>
<path d="M3471 3504 c0 -11 3 -14 6 -6 3 7 2 16 -1 19 -3 4 -6 -2 -5 -13z"/>
<path d="M3017 3496 c-4 -10 -5 -21 -2 -24 9 -9 17 6 13 25 -3 17 -4 17 -11
-1z"/>
<path d="M6876 3468 c3 -24 9 -52 14 -63 4 -11 12 -29 16 -40 7 -16 9 -10 12
24 2 26 -3 57 -13 77 -24 51 -36 52 -29 2z"/>
<path d="M2890 3484 c0 -14 -2 -16 -9 -6 -6 11 -10 10 -15 -4 -3 -9 -4 -19 -1
-22 3 -3 5 0 5 7 0 7 5 9 10 6 11 -7 26 22 16 32 -3 4 -6 -2 -6 -13z"/>
<path d="M2987 3481 c-4 -17 -3 -21 5 -13 5 5 8 16 6 23 -3 8 -7 3 -11 -10z"/>
<path d="M2651 3474 c0 -11 3 -14 6 -6 3 7 2 16 -1 19 -3 4 -6 -2 -5 -13z"/>
<path d="M2696 3465 c-9 -26 -7 -32 5 -12 6 10 9 21 6 23 -2 3 -7 -2 -11 -11z"/>
<path d="M2716 3453 c-6 -14 -5 -15 5 -6 7 7 10 15 7 18 -3 3 -9 -2 -12 -12z"/>
<path d="M2641 3434 c0 -11 3 -14 6 -6 3 7 2 16 -1 19 -3 4 -6 -2 -5 -13z"/>
<path d="M2250 3400 c-12 -8 -11 -10 8 -10 12 0 22 5 22 10 0 13 -11 13 -30 0z"/>
<path d="M2194 3379 c-19 -22 -19 -22 4 -8 12 8 22 17 22 21 0 12 -6 9 -26
-13z"/>
<path d="M2265 3370 c-3 -5 -2 -10 4 -10 5 0 13 5 16 10 3 6 2 10 -4 10 -5 0
-13 -4 -16 -10z"/>
<path d="M2215 3360 c-3 -6 1 -7 9 -4 18 7 21 14 7 14 -6 0 -13 -4 -16 -10z"/>
<path d="M2381 3330 c14 -31 19 -36 19 -24 0 6 -7 19 -16 30 -14 18 -14 18 -3
-6z"/>
<path d="M5862 3338 c4 -12 63 -46 81 -48 19 -1 4 38 -18 48 -34 16 -68 15
-63 0z"/>
<path d="M2296 3291 c-3 -5 1 -11 9 -15 9 -3 15 0 15 9 0 16 -16 20 -24 6z"/>
<path d="M2420 3256 c0 -9 5 -16 10 -16 6 0 10 4 10 9 0 6 -4 13 -10 16 -5 3
-10 -1 -10 -9z"/>
<path d="M2299 3246 c9 -11 9 -15 -1 -19 -8 -3 -2 -9 14 -17 15 -7 25 -17 22
-22 -3 -4 -11 -6 -17 -2 -7 3 -3 -2 8 -10 16 -14 20 -14 27 -2 13 23 -19 86
-43 86 -17 0 -19 -3 -10 -14z"/>
<path d="M2235 3180 c3 -5 11 -10 16 -10 6 0 7 5 4 10 -3 6 -11 10 -16 10 -6
0 -7 -4 -4 -10z"/>
<path d="M2304 3145 c11 -8 22 -12 25 -9 6 6 -19 24 -34 24 -5 -1 -1 -7 9 -15z"/>
<path d="M2245 3140 c3 -5 11 -10 16 -10 6 0 7 5 4 10 -3 6 -11 10 -16 10 -6
0 -7 -4 -4 -10z"/>
<path d="M2304 3105 c11 -8 22 -12 25 -9 6 6 -19 24 -34 24 -5 -1 -1 -7 9 -15z"/>
<path d="M6986 3084 c-3 -9 1 -25 9 -37 15 -21 15 -21 15 10 0 35 -15 52 -24
27z"/>
<path d="M2300 3070 c0 -5 5 -10 11 -10 5 0 7 5 4 10 -3 6 -8 10 -11 10 -2 0
-4 -4 -4 -10z"/>
<path d="M6837 3054 c-10 -10 -8 -56 2 -72 6 -10 10 -4 15 18 6 33 -4 66 -17
54z"/>
<path d="M2300 3032 c0 -5 7 -13 16 -16 10 -4 14 -1 12 6 -5 15 -28 23 -28 10z"/>
<path d="M6756 2999 c-31 -24 -33 -39 -7 -39 35 0 51 12 51 36 0 29 -10 30
-44 3z"/>
<path d="M2300 2991 c0 -5 7 -12 16 -15 14 -5 15 -4 4 9 -14 17 -20 19 -20 6z"/>
<path d="M5990 2951 c-37 -5 -46 -10 -48 -30 -4 -23 -3 -23 70 -16 95 8 110
13 106 33 -4 19 -51 24 -128 13z"/>
<path d="M2305 2940 c3 -5 8 -10 11 -10 2 0 4 5 4 10 0 6 -5 10 -11 10 -5 0
-7 -4 -4 -10z"/>
<path d="M2305 2900 c3 -5 11 -10 16 -10 6 0 7 5 4 10 -3 6 -11 10 -16 10 -6
0 -7 -4 -4 -10z"/>
<path d="M2300 2865 c7 -9 15 -13 17 -11 7 7 -7 26 -19 26 -6 0 -6 -6 2 -15z"/>
<path d="M2310 2821 c0 -5 7 -12 16 -15 14 -5 15 -4 4 9 -14 17 -20 19 -20 6z"/>
<path d="M2280 2785 c0 -26 36 -85 52 -85 4 0 8 9 8 19 0 11 5 23 10 26 18 11
11 25 -22 45 -43 26 -48 25 -48 -5z"/>
<path d="M10587 2785 c-26 -14 -81 -34 -122 -44 -41 -11 -105 -36 -142 -57
-38 -21 -85 -46 -105 -56 -51 -25 -137 -23 -199 3 -35 16 -53 19 -61 11 -14
-14 -1 -33 18 -25 8 3 25 -4 37 -15 52 -48 139 -56 202 -17 95 57 175 94 228
104 90 16 207 79 207 111 0 15 -11 12 -63 -15z"/>
<path d="M2390 2750 c-8 -5 -11 -10 -5 -10 5 0 4 -5 -3 -12 -7 -7 -12 -20 -12
-29 0 -15 4 -15 25 -6 18 9 25 20 25 40 0 29 -6 32 -30 17z"/>
<path d="M2173 2682 c-42 -20 -43 -42 -3 -42 31 0 45 16 38 43 -3 12 -8 12
-35 -1z"/>
<path d="M1383 2682 c-35 -3 -43 -7 -43 -23 0 -17 8 -19 85 -19 69 0 87 3 92
16 11 30 -14 35 -134 26z"/>
<path d="M5690 2483 c-41 -24 -86 -46 -100 -49 -54 -11 -133 -48 -204 -95 -41
-28 -90 -54 -108 -60 -48 -13 -114 -11 -155 6 -19 8 -43 15 -53 15 -10 0 -20
-7 -24 -15 -4 -11 2 -15 23 -15 20 0 37 -9 53 -29 14 -16 34 -34 46 -40 12 -6
26 -28 32 -51 6 -22 17 -43 26 -48 14 -8 14 -10 0 -21 -20 -17 -20 -47 0 -55
8 -3 28 4 43 15 27 20 30 20 59 5 18 -9 55 -16 87 -16 48 0 60 -4 80 -26 14
-15 22 -30 19 -35 -10 -16 49 -109 81 -129 17 -11 37 -31 43 -45 6 -14 16 -25
22 -25 16 0 12 46 -6 61 -19 16 -74 109 -74 127 0 8 8 10 25 6 17 -4 41 2 77
21 47 25 56 26 86 15 26 -9 44 -9 83 0 63 15 66 35 3 25 -56 -8 -108 10 -99
33 3 9 9 35 12 59 6 45 5 45 76 57 12 2 36 -4 52 -15 46 -29 54 -32 70 -25 24
9 17 34 -14 50 -30 16 -81 71 -81 87 0 6 -12 21 -26 34 -14 13 -24 28 -21 32
3 5 -1 16 -8 26 -7 10 -16 14 -19 9 -7 -11 21 -112 35 -126 18 -19 8 -35 -34
-60 -35 -21 -45 -33 -55 -71 -6 -25 -25 -59 -41 -75 -25 -26 -35 -30 -84 -30
-49 0 -61 4 -92 31 -31 27 -45 32 -103 36 -39 2 -74 10 -83 19 -8 8 -18 14
-22 14 -19 0 -127 90 -127 106 0 2 16 4 35 4 20 0 50 7 66 16 29 15 31 14 50
-9 10 -14 39 -33 64 -43 26 -11 45 -26 45 -35 0 -15 39 -59 53 -59 11 0 8 48
-3 55 -15 10 -3 24 36 40 19 8 34 18 34 23 0 4 14 24 30 42 31 35 44 84 16 61
-8 -6 -19 -25 -26 -41 -7 -17 -24 -37 -39 -45 -72 -39 -70 -39 -108 -26 -40
13 -93 53 -93 70 0 12 150 101 170 101 31 0 115 33 167 66 46 29 93 79 82 87
-2 2 -38 -16 -79 -40z"/>
<path d="M5860 2429 c0 -5 5 -7 10 -4 6 3 10 8 10 11 0 2 -4 4 -10 4 -5 0 -10
-5 -10 -11z"/>
<path d="M6641 2391 c-22 -14 73 -71 108 -66 14 2 52 7 83 10 32 4 60 10 63
15 11 18 -26 29 -115 32 -52 2 -102 7 -110 11 -8 4 -21 3 -29 -2z"/>
<path d="M8971 2050 c-36 -33 -62 -63 -58 -66 4 -4 26 11 50 33 24 22 51 44
61 50 10 5 16 17 15 26 -3 13 -20 2 -68 -43z"/>
<path d="M2051 2071 c-12 -8 18 -40 56 -60 25 -13 189 -15 197 -3 2 4 1 14 -4
22 -6 10 -34 15 -95 17 -49 1 -98 8 -115 16 -15 8 -33 11 -39 8z"/>
<path d="M7880 2035 c35 -37 46 -44 34 -22 -13 23 -47 57 -58 57 -5 0 5 -16
24 -35z"/>
<path d="M9045 1965 l-50 -14 50 6 c28 3 59 9 70 14 l20 8 -20 -1 c-11 0 -42
-6 -70 -13z"/>
<path d="M10120 1932 c-37 -49 -64 -56 -203 -46 -67 5 -167 9 -222 9 -100 0
-101 0 -170 -42 -83 -49 -139 -66 -211 -61 -43 2 -56 -1 -67 -16 -12 -17 -17
-17 -50 -5 -32 11 -41 11 -72 -4 -20 -10 -60 -17 -91 -17 -31 0 -68 -6 -82
-14 -15 -8 -76 -25 -137 -38 l-110 -25 0 -74 c0 -74 0 -74 27 -72 26 2 27 0
33 -75 3 -42 8 -87 11 -99 3 -16 -6 -34 -30 -60 l-33 -37 -28 18 c-21 14 -25
23 -20 39 9 28 8 48 -3 117 -8 44 -7 57 4 66 12 9 13 20 5 55 -6 24 -11 59
-11 77 0 31 -1 32 -43 32 -24 0 -52 -7 -63 -15 -26 -19 -74 -20 -74 0 0 20
-62 19 -115 -2 -22 -9 -60 -15 -84 -14 -28 1 -56 -6 -78 -19 -24 -14 -52 -20
-92 -20 -50 0 -64 -4 -96 -30 -41 -33 -42 -33 -165 -36 -47 -1 -112 -8 -145
-16 -66 -15 -72 -24 -74 -111 -1 -51 16 -70 44 -47 13 11 15 2 15 -68 0 -44 3
-92 6 -108 4 -23 -1 -36 -25 -63 -27 -30 -34 -33 -54 -24 -21 10 -23 17 -24
114 -1 56 2 108 6 113 5 6 6 46 4 89 l-6 77 -46 0 c-25 0 -55 -7 -65 -15 -30
-23 -87 -20 -93 5 -8 30 -59 27 -89 -6 -13 -14 -24 -30 -24 -36 0 -6 -8 -7
-17 -3 -42 16 -107 22 -139 14 -39 -11 -80 -58 -120 -137 -27 -53 -28 -63 -26
-158 2 -56 7 -115 11 -132 13 -43 71 -100 131 -128 61 -28 85 -30 107 -8 11
10 26 14 43 11 26 -6 66 9 95 35 8 7 21 19 30 26 8 7 15 26 15 41 0 29 21 57
33 44 4 -3 7 -14 7 -24 0 -28 49 -79 76 -79 14 0 38 -7 55 -15 36 -19 84 -9
132 28 18 13 42 27 54 31 13 4 36 24 52 43 l30 37 -5 -35 c-7 -49 8 -94 32
-92 61 6 110 16 122 25 8 7 44 9 98 5 81 -5 86 -4 100 18 8 13 18 48 21 79 l6
56 -47 -2 c-60 -3 -69 10 -62 85 3 32 0 90 -6 128 -11 65 -11 72 5 84 18 13
65 14 85 1 7 -4 17 -4 22 -1 6 4 10 -8 10 -30 0 -19 9 -62 20 -94 15 -45 18
-78 16 -145 -2 -48 -7 -90 -10 -93 -17 -17 0 -22 62 -17 37 3 80 11 96 16 27
11 28 13 21 62 -4 28 -7 67 -8 86 -1 19 -6 41 -11 49 -5 8 -10 46 -12 85 -2
39 -5 82 -6 96 -3 23 0 25 45 28 l47 3 0 -88 c0 -69 4 -96 20 -126 11 -20 20
-44 20 -52 0 -8 12 -28 28 -45 48 -53 186 -65 228 -19 11 12 36 28 57 36 21 9
44 24 51 35 19 27 38 13 34 -25 -4 -41 19 -46 73 -18 28 15 58 21 103 21 72 0
81 6 91 68 5 33 3 46 -8 55 -8 7 -17 21 -19 32 -2 11 -16 26 -31 33 -23 11
-25 16 -17 33 6 10 14 19 19 19 11 0 41 -34 41 -47 0 -6 6 -16 14 -22 8 -7 17
-38 21 -70 10 -87 11 -87 97 -69 40 9 88 17 106 17 18 1 52 8 75 17 68 25 149
46 155 40 3 -3 11 2 17 12 10 13 10 33 3 77 -5 32 -10 61 -12 62 -2 2 -15 -1
-30 -6 -24 -10 -26 -8 -26 14 0 20 7 26 41 35 52 14 69 8 62 -22 -3 -13 -9
-28 -14 -33 -9 -13 5 -83 20 -98 8 -8 20 -7 44 2 17 8 64 15 104 15 65 1 73
-1 82 -21 12 -27 8 -27 91 -6 36 9 105 17 154 18 l90 1 18 39 c10 22 17 56 15
75 -2 35 -3 35 -52 38 -27 2 -53 9 -57 15 -4 7 -8 42 -8 78 0 37 -7 86 -15
109 -10 27 -15 80 -15 149 0 127 -8 146 -40 103z m-278 -92 c17 0 38 -47 38
-87 0 -23 2 -24 45 -17 30 4 50 2 60 -6 8 -7 15 -9 15 -4 1 5 14 -20 31 -56
20 -43 32 -87 36 -136 l6 -73 -34 -9 c-43 -12 -46 -10 -59 40 -11 40 -12 40
-50 35 -33 -4 -41 -1 -61 26 -37 49 -48 70 -49 95 0 13 -16 53 -35 89 -19 36
-35 77 -35 91 0 23 3 24 38 18 20 -3 44 -6 54 -6z m-355 -112 c-3 -29 -14 -63
-26 -79 -12 -16 -21 -36 -21 -47 0 -10 -5 -23 -12 -30 -9 -9 -8 -23 5 -60 17
-46 17 -49 -3 -90 -28 -57 -62 -59 -87 -4 -10 20 -28 41 -40 47 -31 13 -29 23
4 27 61 7 77 120 32 211 l-19 37 37 0 c21 0 56 9 78 19 22 11 44 20 48 20 5 1
6 -22 4 -51z m148 -130 c9 -23 10 -37 3 -45 -19 -24 -28 -13 -28 32 0 53 6 57
25 13z m-445 -18 c0 -10 -8 -20 -17 -23 -10 -2 -26 -8 -35 -12 -15 -6 -18 -2
-18 19 0 18 7 29 23 35 29 11 47 3 47 -19z m-246 -50 c22 0 24 -4 29 -92 2
-51 8 -100 11 -109 8 -18 -20 -52 -37 -46 -12 4 -19 30 -37 132 -24 135 -24
129 -5 122 9 -4 27 -7 39 -7z m-1024 -170 c0 -5 7 -10 15 -10 21 0 55 -120 55
-196 0 -74 -2 -76 -83 -78 -49 -1 -52 1 -53 24 -1 14 -9 72 -18 129 -9 57 -15
110 -12 117 3 7 20 14 38 17 18 2 39 5 46 5 6 1 12 -2 12 -8z m-672 -76 c15
-4 25 -17 29 -35 6 -33 14 -35 46 -15 12 8 38 16 57 18 l35 3 3 -64 c4 -77 -5
-88 -48 -66 -30 15 -33 15 -51 -1 -10 -9 -19 -22 -19 -29 0 -19 -36 -46 -74
-55 -46 -10 -72 8 -87 62 -11 42 -11 42 27 176 4 13 44 16 82 6z"/>
<path d="M7970 1945 c0 -28 32 -57 101 -90 43 -22 79 -45 79 -52 0 -7 9 -13
21 -13 11 0 33 -9 48 -19 14 -10 42 -26 61 -34 25 -10 31 -16 20 -21 -8 -3
-130 -26 -270 -51 -140 -25 -280 -49 -310 -55 -30 -6 -127 -21 -215 -35 -88
-14 -187 -30 -220 -35 -836 -137 -1870 -250 -2635 -289 -651 -34 -1422 -30
-1965 9 -71 5 -177 13 -235 17 l-105 8 120 6 c185 9 426 31 468 41 32 7 38 13
35 31 -2 13 -9 21 -18 19 -8 -2 -62 -8 -120 -13 -58 -5 -146 -13 -197 -19
-116 -13 -268 -13 -311 -1 -26 8 -34 7 -39 -5 -7 -19 15 -44 40 -44 13 0 17
-4 12 -9 -6 -6 -32 -5 -65 1 -30 5 -109 9 -175 8 -98 0 -142 4 -238 26 l-117
27 -58 -18 c-39 -13 -96 -20 -179 -23 -68 -2 -123 -6 -123 -9 0 -16 24 -43 39
-43 31 0 30 -10 -6 -71 -40 -67 -46 -69 -148 -44 -63 15 -115 19 -115 9 0 -3
27 -40 61 -82 34 -42 63 -81 66 -88 2 -6 -19 -54 -46 -106 -28 -52 -51 -97
-51 -101 0 -9 67 16 125 46 86 44 98 44 134 -2 18 -23 38 -41 44 -41 7 1 25
11 41 24 27 22 28 28 23 70 -6 41 -4 47 22 66 16 11 32 20 36 20 4 0 23 10 42
21 23 15 31 24 23 29 -9 6 -7 11 6 18 16 9 13 12 -21 27 -22 9 -57 19 -78 22
-47 7 -54 20 -58 108 l-4 70 58 7 c32 4 72 14 90 22 59 27 74 26 193 -5 135
-35 259 -38 289 -8 13 12 26 14 63 8 111 -17 549 -45 952 -60 536 -21 1469 1
2010 46 217 19 748 70 870 85 624 76 1147 151 1720 249 196 33 604 107 665
121 96 21 337 60 372 60 22 0 43 4 48 9 6 5 82 23 170 41 88 18 162 34 164 36
16 15 -25 11 -162 -17 -92 -18 -164 -28 -174 -24 -10 5 -24 7 -30 6 -7 -1 -38
5 -68 13 -61 16 -84 12 -154 -24 -27 -13 -83 -27 -146 -35 -132 -18 -181 -7
-307 67 -137 81 -168 98 -168 93z m751 -135 c5 0 9 -4 9 -9 0 -5 -21 -12 -46
-16 -26 -3 -53 -9 -60 -12 -8 -3 -14 -1 -14 5 0 13 71 42 88 37 8 -3 18 -5 23
-5z"/>
<path d="M8958 1943 c7 -3 16 -2 19 1 4 3 -2 6 -13 5 -11 0 -14 -3 -6 -6z"/>
<path d="M10700 1920 c0 -5 4 -10 9 -10 6 0 13 5 16 10 3 6 -1 10 -9 10 -9 0
-16 -4 -16 -10z"/>
<path d="M7715 1899 c-16 -4 -42 -11 -57 -14 -25 -5 -56 -40 -45 -51 8 -8 142
19 149 30 12 17 9 46 -4 45 -7 -1 -26 -5 -43 -10z"/>
<path d="M10409 1889 c-5 -11 -9 -25 -8 -32 5 -36 -4 -45 -63 -67 -35 -12 -67
-26 -72 -31 -6 -5 -22 -9 -37 -9 -30 0 -46 -14 -28 -25 6 -4 21 -2 34 5 29 16
57 6 53 -17 -2 -13 12 -23 57 -39 l60 -21 7 -112 c3 -62 8 -114 10 -117 3 -2
35 39 72 91 43 60 74 95 86 95 23 0 27 20 24 103 -2 39 1 67 6 67 6 0 10 14
10 30 0 17 5 30 10 30 6 0 10 5 10 12 0 6 10 22 22 35 26 28 12 30 -50 6 -36
-14 -48 -14 -64 -4 -11 7 -45 14 -74 16 -45 2 -56 -1 -65 -16z"/>
<path d="M5370 1896 c0 -9 50 -74 93 -121 19 -20 26 -37 22 -51 -10 -42 47
-156 67 -136 6 6 6 17 -1 30 -20 38 -5 86 21 65 18 -15 76 -27 120 -24 21 1
53 -7 76 -19 41 -22 101 -28 141 -15 33 10 19 30 -23 32 -36 1 -96 20 -96 30
0 3 14 18 30 33 17 15 31 37 31 49 1 12 3 26 4 31 1 6 3 15 4 20 0 6 12 10 26
10 20 0 25 5 25 25 0 22 -4 25 -33 25 -41 0 -77 -24 -71 -47 7 -26 -21 -88
-49 -106 -13 -8 -48 -18 -78 -22 -76 -9 -114 10 -216 108 -46 45 -86 84 -89
86 -2 2 -4 1 -4 -3z"/>
<path d="M10647 1813 c-4 -3 -7 -11 -7 -17 0 -6 5 -5 12 2 6 6 9 14 7 17 -3 3
-9 2 -12 -2z"/>
<path d="M5275 1763 c-4 -12 1 -23 15 -33 45 -31 70 -63 70 -91 0 -16 4 -29 9
-29 11 0 21 63 11 70 -4 3 -11 12 -16 21 -5 9 -25 30 -45 48 -33 28 -38 29
-44 14z"/>
<path d="M8000 1770 c-20 -6 -21 -8 -5 -8 11 0 34 4 50 8 27 7 27 8 5 8 -14 0
-36 -4 -50 -8z"/>
<path d="M7505 1750 c-16 -5 -75 -13 -130 -19 -55 -6 -134 -16 -175 -22 -41
-6 -133 -11 -203 -11 -125 0 -128 -1 -125 -22 3 -20 10 -21 113 -24 61 -2 169
4 240 12 179 22 225 25 218 13 -4 -6 6 -8 27 -4 18 4 42 7 54 7 15 0 17 3 8 9
-10 6 -10 10 3 21 15 13 21 51 8 49 -5 -1 -21 -5 -38 -9z"/>
<path d="M7895 1750 c-27 -7 -28 -8 -5 -8 14 0 34 3 45 8 25 11 2 11 -40 0z"/>
<path d="M6792 1706 c-31 -52 -91 -76 -193 -76 -46 0 -115 7 -154 15 -89 19
-119 19 -156 -1 -45 -23 -170 -44 -260 -44 -43 0 -79 -3 -79 -6 0 -3 10 -15
23 -25 l22 -20 -90 4 c-67 2 -101 8 -132 24 l-42 21 -33 -24 c-36 -27 -48 -29
-94 -12 -27 9 -38 9 -60 -2 -15 -9 -50 -14 -83 -13 -53 2 -111 -12 -111 -26 0
-8 156 -6 196 3 16 4 51 2 79 -3 27 -5 54 -6 60 -2 5 5 23 11 39 15 l29 7 -29
-24 c-16 -14 -41 -27 -54 -29 -14 -1 -24 -7 -23 -13 4 -19 44 -17 116 6 53 16
100 23 177 24 58 0 111 5 118 9 7 4 49 16 94 27 45 11 104 33 132 48 48 28 54
29 109 19 31 -5 57 -13 57 -16 0 -11 -52 -32 -76 -32 -13 0 -26 -4 -29 -10 -3
-5 -29 -10 -56 -10 -31 0 -70 -9 -102 -24 -51 -23 -95 -31 -219 -42 -37 -3
-70 -12 -81 -22 -16 -14 -17 -14 -12 0 5 12 1 14 -22 10 -15 -3 -30 -8 -33
-11 -20 -25 -115 -41 -122 -21 -1 5 -43 11 -93 14 -103 5 -142 13 -285 55 -57
17 -117 31 -134 31 -17 0 -134 -4 -261 -8 -227 -7 -231 -7 -275 -34 -123 -75
-161 -89 -235 -87 -69 2 -70 2 -73 -24 -2 -19 -10 -27 -30 -30 -15 -3 24 -4
86 -3 62 0 116 6 120 11 18 25 99 80 143 96 43 17 80 19 302 19 139 0 257 -4
262 -9 6 -5 36 -16 67 -25 31 -9 60 -21 63 -26 3 -6 24 -10 46 -10 22 0 97 -9
167 -21 118 -19 224 -21 250 -5 6 3 44 7 84 7 83 0 195 26 304 69 40 16 80 27
89 24 8 -4 50 5 93 19 42 15 96 29 120 33 23 4 42 10 42 15 0 13 68 39 102 39
38 0 85 25 93 49 3 11 18 22 33 26 15 3 41 16 57 30 30 23 30 24 10 39 -28 21
-30 20 -53 -18z m-802 -250 c0 -9 -30 -14 -35 -6 -4 6 3 10 14 10 12 0 21 -2
21 -4z"/>
<path d="M7753 1723 c9 -2 25 -2 35 0 9 3 1 5 -18 5 -19 0 -27 -2 -17 -5z"/>
<path d="M7615 1700 c-4 -6 6 -7 27 -3 44 8 48 13 10 13 -17 0 -34 -4 -37 -10z"/>
<path d="M7333 1653 c9 -2 23 -2 30 0 6 3 -1 5 -18 5 -16 0 -22 -2 -12 -5z"/>
<path d="M7193 1633 c9 -2 25 -2 35 0 9 3 1 5 -18 5 -19 0 -27 -2 -17 -5z"/>
<path d="M7073 1613 c9 -2 23 -2 30 0 6 3 -1 5 -18 5 -16 0 -22 -2 -12 -5z"/>
<path d="M6943 1593 c9 -2 23 -2 30 0 6 3 -1 5 -18 5 -16 0 -22 -2 -12 -5z"/>
<path d="M6803 1573 c9 -2 25 -2 35 0 9 3 1 5 -18 5 -19 0 -27 -2 -17 -5z"/>
<path d="M6723 1563 c9 -2 23 -2 30 0 6 3 -1 5 -18 5 -16 0 -22 -2 -12 -5z"/>
<path d="M6583 1543 c9 -2 25 -2 35 0 9 3 1 5 -18 5 -19 0 -27 -2 -17 -5z"/>
<path d="M3040 1491 c-14 -27 -13 -31 9 -31 24 0 33 13 25 34 -8 21 -21 20
-34 -3z"/>
<path d="M4089 1477 c-81 -54 -214 -93 -285 -83 -24 3 -64 14 -87 25 l-43 19
-103 -35 -104 -35 -158 4 c-120 2 -160 0 -164 -9 -2 -7 -23 -14 -47 -15 -40
-1 -40 -1 -8 -5 19 -2 45 -8 56 -14 14 -7 87 -10 205 -8 168 4 187 6 214 25
17 12 48 27 70 34 22 7 44 16 49 21 5 5 24 -5 43 -21 19 -17 39 -30 46 -30 7
0 6 -4 -3 -10 -10 -7 26 -9 110 -8 88 1 109 3 70 7 -60 7 -58 12 12 31 26 7
65 28 87 46 44 38 74 42 175 23 32 -6 60 -8 64 -5 13 14 -34 44 -85 55 -74 15
-75 15 -114 -12z"/>
<path d="M5728 1443 c12 -2 30 -2 40 0 9 3 -1 5 -23 4 -22 0 -30 -2 -17 -4z"/>
<path d="M5228 1393 c12 -2 30 -2 40 0 9 3 -1 5 -23 4 -22 0 -30 -2 -17 -4z"/>
<path d="M5098 1383 c12 -2 30 -2 40 0 9 3 -1 5 -23 4 -22 0 -30 -2 -17 -4z"/>
<path d="M6478 1376 c-45 -16 -116 -58 -145 -85 -29 -27 -30 -27 -38 9 -6 27
-10 30 -48 30 -23 0 -60 -7 -84 -16 -25 -10 -50 -13 -60 -9 -25 11 -64 6 -90
-11 -13 -8 -42 -13 -65 -13 -24 1 -69 -4 -101 -12 -42 -10 -65 -10 -85 -3 -36
14 -77 0 -68 -22 3 -9 6 -34 6 -56 0 -35 4 -41 30 -51 29 -11 30 -13 24 -62
-4 -27 -9 -52 -11 -55 -6 -6 -53 51 -53 63 0 5 -11 33 -25 62 -13 30 -27 66
-31 80 -6 25 -8 25 -73 19 -36 -3 -79 -10 -95 -15 -23 -7 -31 -5 -45 13 -14
17 -24 20 -53 14 -20 -4 -41 -13 -48 -21 -6 -7 -37 -17 -68 -21 -31 -3 -64
-10 -74 -15 -9 -5 -28 -4 -45 2 -21 7 -46 6 -89 -3 l-59 -13 -6 -45 c-6 -42
-6 -42 -8 -10 -2 58 -10 63 -82 55 -35 -3 -88 -6 -118 -6 -31 1 -63 -4 -75
-13 -17 -10 -33 -12 -67 -5 -24 4 -95 8 -157 9 -99 0 -113 -2 -118 -17 -4 -10
-19 -46 -35 -80 -16 -34 -29 -65 -29 -68 0 -10 -64 -114 -70 -114 -6 0 -47 86
-56 119 -3 14 -11 31 -17 38 -6 7 -16 34 -22 60 l-12 47 -79 -5 c-43 -3 -115
-4 -159 -3 -44 2 -97 -2 -117 -8 -28 -7 -43 -6 -58 3 -16 11 -28 10 -65 -3
-52 -19 -96 -14 -102 12 -5 16 -15 19 -74 19 -37 0 -79 -5 -93 -11 -19 -9 -36
-9 -71 1 -30 8 -49 10 -56 3 -14 -14 -23 -79 -14 -100 15 -34 12 -58 -12 -123
-14 -36 -27 -73 -30 -82 -8 -25 -30 -22 -39 5 -5 12 -8 59 -9 104 l0 83 27 0
c32 0 41 22 36 91 l-3 44 -70 7 c-38 4 -97 9 -130 13 -54 5 -63 3 -86 -18 -15
-13 -30 -34 -33 -45 -7 -20 -10 -19 -48 19 -22 21 -52 42 -65 45 -74 19 -228
-35 -271 -93 -26 -35 -34 -27 -21 20 11 41 5 61 -17 53 -7 -3 -41 -1 -76 4
-141 21 -128 23 -145 -18 -8 -20 -25 -50 -36 -67 -12 -16 -30 -46 -40 -65 -18
-35 -66 -95 -70 -89 -22 33 -61 157 -76 239 -7 39 0 36 -179 54 l-62 6 0 -34
c0 -18 -7 -53 -15 -76 -20 -57 -20 -59 16 -72 26 -9 30 -14 25 -34 -4 -14 -2
-33 4 -44 9 -16 7 -27 -10 -50 -11 -16 -22 -46 -23 -67 -2 -31 -6 -39 -24 -41
-21 -3 -23 -8 -23 -76 0 -43 5 -77 12 -84 7 -7 30 -12 53 -12 22 -1 69 -7 105
-15 36 -8 70 -14 75 -15 12 0 36 83 36 125 l-1 30 15 -25 c8 -14 14 -42 15
-62 0 -49 19 -49 59 -1 24 29 31 33 31 18 0 -43 24 -85 54 -95 38 -12 187 -16
204 -6 7 4 12 18 12 32 0 14 7 41 15 61 17 41 13 66 -8 57 -23 -8 -32 48 -23
144 6 63 20 92 46 92 18 0 18 -2 4 -35 -17 -41 -19 -142 -3 -182 6 -15 12 -38
13 -50 4 -29 57 -94 104 -126 36 -25 45 -27 125 -25 48 2 87 7 87 13 0 5 23
31 50 57 34 32 64 76 91 131 39 78 40 85 36 157 -2 41 -8 83 -12 93 -14 33 27
15 54 -23 23 -34 23 -36 7 -79 -15 -40 -15 -47 -1 -67 8 -13 15 -28 15 -33 0
-6 11 -27 25 -47 20 -29 25 -49 25 -98 l0 -62 56 -37 c63 -41 68 -42 139 -23
53 14 74 41 75 99 0 15 14 57 30 92 17 35 30 78 30 96 0 17 12 53 28 80 l27
49 70 -4 c127 -7 120 0 120 -124 0 -59 -4 -113 -8 -119 -5 -9 -22 -11 -52 -6
-25 3 -45 2 -45 -3 0 -5 -5 -38 -10 -72 -17 -102 -14 -105 89 -100 47 3 95 1
107 -4 14 -7 32 -5 55 4 25 10 75 13 186 12 83 -1 160 -5 171 -8 16 -6 20 0
27 36 4 24 8 60 9 81 0 20 4 37 7 37 11 0 29 -51 29 -81 0 -45 37 -36 64 16
16 32 21 36 24 20 2 -11 10 -34 19 -52 14 -26 24 -32 60 -38 24 -3 48 -3 54 1
6 3 38 8 70 9 33 1 63 5 66 9 5 5 14 51 25 131 2 14 -3 21 -18 23 -27 4 -37
42 -36 134 1 83 13 108 50 108 16 0 32 4 38 9 13 14 104 -7 99 -22 -3 -7 -1
-53 3 -104 4 -50 6 -96 4 -102 -2 -6 -25 -11 -52 -11 -45 0 -48 -1 -54 -31 -3
-17 -6 -58 -6 -90 0 -57 1 -59 28 -60 45 -2 75 2 110 13 24 7 37 7 45 -1 16
-16 53 -14 89 5 24 12 46 14 98 9 46 -5 75 -3 90 5 13 7 56 12 97 11 43 -1 84
4 96 11 12 7 56 13 97 14 151 3 335 15 337 22 1 4 4 28 8 55 3 26 10 47 14 47
4 0 29 -21 56 -46 39 -38 54 -46 84 -46 85 1 114 39 92 119 -6 21 -11 65 -11
98 -1 56 -8 105 -24 166 -6 20 -3 27 16 36 27 12 88 6 88 -9 0 -6 7 -4 16 3
15 12 16 10 10 -28 -5 -24 -3 -50 3 -61 18 -34 26 -159 11 -177 -8 -9 -11 -30
-7 -55 3 -22 1 -43 -4 -46 -5 -3 -9 -11 -9 -17 0 -14 128 -11 168 4 22 9 23
11 17 111 -3 57 -6 146 -8 198 l-2 95 30 0 c22 0 29 -4 26 -15 -10 -44 1 -146
19 -178 11 -18 20 -40 20 -48 0 -21 74 -90 121 -114 46 -24 90 -25 130 -4 17
8 42 14 57 12 20 -2 28 2 30 17 2 11 16 34 32 50 35 38 50 69 85 173 31 95 29
129 -9 214 -39 89 -134 169 -198 168 -12 -1 -39 -7 -60 -14z m80 -166 c12 -11
24 -33 28 -48 3 -15 10 -47 16 -73 9 -36 8 -52 -5 -80 -8 -18 -17 -42 -21 -51
-3 -10 -12 -18 -20 -18 -9 0 -20 -9 -26 -20 -13 -24 -62 -27 -84 -4 -9 8 -16
30 -17 47 -1 18 -3 56 -5 86 -6 72 10 114 54 151 43 35 51 36 80 10z m-3816
-190 c12 -17 20 -49 24 -98 4 -61 2 -76 -14 -100 -11 -15 -23 -37 -26 -49 -5
-14 -15 -23 -27 -23 -11 0 -27 -6 -35 -14 -11 -12 -21 -13 -45 -4 -17 6 -33
17 -36 25 -3 9 -1 61 5 117 11 100 11 101 52 139 46 44 73 45 102 7z m2548 20
c0 -11 72 -21 84 -11 6 4 25 11 42 14 31 6 32 5 38 -40 8 -64 8 -133 -2 -133
-4 0 -13 5 -19 11 -5 5 -34 9 -64 7 -52 -3 -54 -4 -57 -33 -5 -43 -17 -52 -66
-53 -36 -1 -45 2 -49 18 -3 11 -1 23 4 26 5 3 9 0 9 -5 0 -6 16 -11 35 -11 38
0 40 3 48 90 6 66 -4 95 -33 96 -39 1 -48 -5 -60 -39 -8 -24 -13 -29 -19 -18
-5 8 -5 24 -1 35 5 12 11 29 14 38 4 13 16 17 51 16 25 0 45 -4 45 -8z m-266
-133 c-4 -73 -8 -133 -9 -135 -3 -3 -120 -5 -148 -3 -14 2 -15 6 -7 22 6 11 8
24 5 29 -3 5 -7 46 -9 90 -3 93 5 105 59 94 31 -5 37 -3 41 13 4 14 15 19 40
20 l35 1 -7 -131z m-1143 53 c48 0 49 -1 43 -25 -4 -15 -1 -32 6 -41 11 -12 9
-23 -9 -60 -16 -30 -21 -53 -16 -73 6 -27 3 -30 -27 -37 -37 -9 -69 -6 -82 6
-5 5 -16 6 -25 2 -13 -5 -14 -3 -4 9 8 9 11 48 9 112 -2 80 0 100 13 107 9 5
22 7 29 5 8 -3 36 -5 63 -5z m-1891 -147 c0 -18 -4 -20 -27 -14 -17 5 -26 14
-24 22 2 8 6 41 9 73 l5 60 18 -60 c10 -32 19 -69 19 -81z m3660 78 c13 -28
21 -53 19 -55 -2 -2 -15 -7 -29 -11 -25 -6 -25 -5 -25 59 0 35 2 63 5 61 3 -2
17 -26 30 -54z m-3435 -13 c-4 -18 -7 -47 -6 -65 1 -30 -1 -32 -29 -30 -16 1
-30 6 -30 10 0 10 63 116 69 117 2 0 0 -15 -4 -32z m1918 -128 c5 -22 3 -25
-22 -26 l-28 -1 1 69 0 69 22 -43 c11 -24 24 -54 27 -68z m217 48 l0 -63 -30
0 c-17 0 -28 5 -26 10 2 6 14 34 26 63 13 28 24 52 26 52 2 0 4 -28 4 -62z
m1102 30 c-7 -7 -12 -8 -12 -2 0 14 12 26 19 19 2 -3 -1 -11 -7 -17z"/>
<path d="M4880 1372 c0 -4 30 -6 68 -4 101 5 107 10 15 11 -46 0 -83 -3 -83
-7z"/>
<path d="M4720 1366 c0 -8 61 -12 66 -4 3 4 -11 8 -30 8 -20 0 -36 -2 -36 -4z"/>
<path d="M4598 1353 c18 -2 45 -2 60 0 15 2 0 4 -33 4 -33 0 -45 -2 -27 -4z"/>
<path d="M4183 1343 c9 -2 25 -2 35 0 9 3 1 5 -18 5 -19 0 -27 -2 -17 -5z"/>
<path d="M3623 1333 c9 -2 23 -2 30 0 6 3 -1 5 -18 5 -16 0 -22 -2 -12 -5z"/>
<path d="M4053 1333 c15 -2 37 -2 50 0 12 2 0 4 -28 4 -27 0 -38 -2 -22 -4z"/>
<path d="M10090 1250 c-182 -38 -689 -142 -935 -191 -190 -38 -540 -104 -615
-116 -19 -2 -93 -16 -164 -29 -70 -13 -156 -28 -190 -34 -33 -5 -149 -24 -256
-44 -184 -33 -430 -73 -585 -96 -38 -5 -128 -19 -200 -29 -322 -49 -570 -82
-910 -122 -1388 -162 -2709 -194 -3895 -94 -69 6 -135 13 -399 46 -144 17
-185 19 -170 5 5 -4 485 -63 574 -71 94 -8 547 -34 795 -45 769 -36 1783 1
2725 100 535 56 931 107 1400 180 33 5 110 16 170 25 61 9 216 35 345 57 129
22 255 40 280 40 25 -1 59 3 75 8 62 19 257 60 455 94 246 43 395 72 720 137
135 28 402 81 593 118 192 38 354 74 360 80 17 17 -19 13 -173 -19z"/>
<path d="M1710 1039 c0 -5 11 -9 25 -9 14 0 25 2 25 4 0 2 -11 6 -25 8 -14 3
-25 1 -25 -3z"/>
<path d="M8028 813 c7 -3 16 -2 19 1 4 3 -2 6 -13 5 -11 0 -14 -3 -6 -6z"/>
<path d="M7888 783 c6 -2 18 -2 25 0 6 3 1 5 -13 5 -14 0 -19 -2 -12 -5z"/>
<path d="M7728 743 c7 -3 16 -2 19 1 4 3 -2 6 -13 5 -11 0 -14 -3 -6 -6z"/>
<path d="M7628 723 c6 -2 18 -2 25 0 6 3 1 5 -13 5 -14 0 -19 -2 -12 -5z"/>
<path d="M7468 693 c7 -3 16 -2 19 1 4 3 -2 6 -13 5 -11 0 -14 -3 -6 -6z"/>
<path d="M7333 663 c9 -2 23 -2 30 0 6 3 -1 5 -18 5 -16 0 -22 -2 -12 -5z"/>
<path d="M7208 643 c7 -3 16 -2 19 1 4 3 -2 6 -13 5 -11 0 -14 -3 -6 -6z"/>
<path d="M6828 573 c6 -2 18 -2 25 0 6 3 1 5 -13 5 -14 0 -19 -2 -12 -5z"/>
<path d="M6698 553 c7 -3 16 -2 19 1 4 3 -2 6 -13 5 -11 0 -14 -3 -6 -6z"/>
<path d="M6448 513 c6 -2 18 -2 25 0 6 3 1 5 -13 5 -14 0 -19 -2 -12 -5z"/>
<path d="M5975 464 c-115 -12 -223 -23 -238 -23 -27 -1 -26 -3 45 -84 40 -46
100 -114 132 -153 32 -38 62 -69 67 -69 4 0 60 77 125 170 64 94 122 173 128
177 16 11 -26 8 -259 -18z"/>
<path d="M5608 423 c7 -3 16 -2 19 1 4 3 -2 6 -13 5 -11 0 -14 -3 -6 -6z"/>
</g>
</svg>
